<svg xmlns="http://www.w3.org/2000/svg" viewBox="0 0 143 143"><circle fill="#1D9F38" cx="71.5" cy="71.5" r="71.5"/><path fill="#FFF" d="M85.502 83.783c-6.114 0-11.085 4.962-11.085 11.062 0 6.101 4.971 11.063 11.085 11.063 6.112 0 11.089-4.962 11.089-11.063 0-6.101-4.975-11.062-11.089-11.062zm0 16.537a5.485 5.485 0 0 1-5.484-5.476c0-3.02 2.459-5.475 5.484-5.475s5.487 2.455 5.487 5.475c-.001 3.021-2.462 5.476-5.487 5.476zm21.3-58.663L87.344 23.586A2.191 2.191 0 0 0 85.851 23H55.973c-.578 0-1.132.228-1.543.633L36.149 41.704a2.184 2.184 0 0 0-.649 1.552v74.557c0 1.207.981 2.186 2.192 2.186h67.617a2.19 2.19 0 0 0 2.192-2.186V43.257a2.19 2.19 0 0 0-.699-1.6zm-3.685 73.972H39.883V44.168l16.992-16.796h28.113l18.129 16.837v71.42zM71.5 41.675c1.979 0 3.584-1.6 3.584-3.575s-1.605-3.575-3.584-3.575-3.584 1.6-3.584 3.575 1.605 3.575 3.584 3.575zM57.498 77.978c6.114 0 11.092-4.964 11.092-11.06 0-6.101-4.975-11.062-11.092-11.062-6.115 0-11.089 4.961-11.089 11.062.001 6.099 4.975 11.06 11.089 11.06zm0-16.534c3.028 0 5.489 2.455 5.489 5.475 0 3.017-2.462 5.473-5.489 5.473-3.025 0-5.488-2.456-5.488-5.473.001-3.02 2.464-5.475 5.488-5.475zm-7.293 40.667a2.795 2.795 0 0 0 1.981.818c.717 0 1.434-.27 1.98-.818l38.654-38.55a2.785 2.785 0 0 0 0-3.951 2.803 2.803 0 0 0-3.96 0L50.205 98.16a2.787 2.787 0 0 0 0 3.951z"/></svg>