<svg xmlns="http://www.w3.org/2000/svg" viewBox="0 0 143 143"><circle fill="#1D9F38" cx="71.5" cy="71.5" r="71.5"/><path fill="#FFF" d="M75.155 101.906c.043.004.077.009.111.009 1.514 0 3.029.007 4.543-.005a1.636 1.636 0 0 0 1.002-.354c.613-.482.896-1.105.791-1.902-.118-.897-.969-1.662-1.853-1.654-1.029.01-2.058.002-3.087.002-.056 0-.113-.005-.173-.007v-1.271h5.135v-1.322h-6.47v6.504zm1.328-2.601h.191c.923 0 1.845-.002 2.768.002.132 0 .266.015.396.039.28.053.485.349.463.651-.021.293-.283.579-.557.58-1.069.004-2.137 0-3.206-.001-.011 0-.022-.005-.055-.014v-1.257zm-11.882.976l-1.954-4.877h-1.279v6.498h1.317v-3.086c.204.437.387.876.563 1.318.219.547.429 1.097.652 1.642.024.059.108.132.167.134.356.012.713.01 1.07.002.049-.001.125-.043.142-.086.263-.648.517-1.3.777-1.95.137-.343.28-.683.421-1.025a.413.413 0 0 0 .037.005v3.054h1.316v-6.508h-1.271l-1.958 4.879zm-11.865 1.629h1.304v-6.506h-1.304v6.506zm-2.138-3.864c-.335-.057-.685-.034-1.028-.042-.22-.005-.44-.001-.681-.001v-2.605h-1.311v6.517c.932 0 1.85.001 2.768-.002.097 0 .196-.02.291-.045.897-.243 1.507-1.021 1.488-1.972-.018-.867-.682-1.706-1.527-1.85zm-.384 2.532c-.431.002-.863.001-1.307.001v-1.236c.473 0 .933-.019 1.39.007.324.018.522.325.494.685a.602.602 0 0 1-.577.543zm16.74-59.322h-3.919v15.528h-3.834V41.256h-3.888v15.529h-3.831V41.254h-3.904V60.7h19.376V41.256zm27.131 59.31h-1.263v-5.162h-1.331v5.16h-1.232v-5.156h-1.312v6.501h6.462v-6.503h-1.324v5.16zM104.477 26.5H38.523c-1.117 0-2.023.91-2.023 2.033v85.934c0 1.123.906 2.033 2.023 2.033h65.955c1.117 0 2.023-.91 2.023-2.033V28.533a2.029 2.029 0 0 0-2.024-2.033zm-2.022 85.934h-61.91V30.566h61.91v81.868zM66.807 72.063v9.71h1.956v-3.858h5.755v3.855h1.95v-9.704h-1.966v3.856h-5.75v-3.857h-1.945zm-17.279 4.931c.044.084.068.123.085.164.385.958.771 1.917 1.154 2.876.21.525.416 1.052.625 1.579.045.114.1.18.251.176.532-.015 1.064-.008 1.596-.002.11.001.17-.034.211-.137.505-1.274 1.013-2.548 1.521-3.821.102-.257.207-.513.311-.769l.041.008v4.712h1.943v-9.717h-1.903l-2.936 7.328-2.933-7.325h-1.92v9.707h1.953v-4.779zM89.485 60.71c.329 0 .661-.027.988-.07 1.159-.151 2.157-.662 3.02-1.435a5.863 5.863 0 0 0 1.922-4.33c.004-.404-.059-.814-.135-1.213-.214-1.119-.748-2.079-1.53-2.894a5.804 5.804 0 0 0-1.744-1.227 5.366 5.366 0 0 0-2.273-.529c-3.193-.014-6.386-.006-9.578-.006h-.195v-3.854h15.45v-3.896H76.03v19.457h.245c4.403 0 8.807.002 13.21-.003zm-9.527-7.757h.229c3.152 0 6.303.008 9.455-.005a1.827 1.827 0 0 1 1.817 1.518c.119.671-.034 1.272-.487 1.771a1.677 1.677 0 0 1-1.04.526c-.149.02-.301.035-.451.035-3.105.002-6.21.002-9.314.002h-.209v-3.847zm15.439 19.11h-1.725c0 .157-.003.303 0 .449.009.411-.104.797-.268 1.165-.316.712-.828 1.244-1.507 1.624a3.786 3.786 0 0 1-1.86.489c-.632.004-1.263.001-1.895.002h-.2v-3.724H86v9.701h1.947v-3.992c.045-.007.067-.014.09-.014.69 0 1.38-.007 2.07.005.219.004.44.04.654.089a3.628 3.628 0 0 1 2.21 1.451c.442.611.697 1.288.699 2.051v.414h1.744c.029-.752-.004-1.486-.22-2.199-.343-1.134-1.005-2.051-1.946-2.768 1.89-1.377 2.294-3.256 2.149-4.743z"/></svg>