<svg xmlns="http://www.w3.org/2000/svg" viewBox="0 0 143 143"><circle fill="#1D9F38" cx="71.5" cy="71.5" r="71.5"/><path fill="#FFF" d="M63.027 93.589c-8.329 0-14.145-6.502-14.145-15.811a2.428 2.428 0 1 0-4.856 0c0 11.975 7.991 20.667 19.001 20.667a2.428 2.428 0 1 0 0-4.856zM94.07 49.564c-5.553-6.146-13.379-9.53-22.036-9.53a2.428 2.428 0 1 0 0 4.856c15.105 0 25.655 11.71 25.655 28.478a2.428 2.428 0 1 0 4.856 0c0-9.302-3.01-17.756-8.475-23.804zM71.5 30.5c-22.607 0-41 18.392-41 41s18.393 41 41 41 41-18.393 41-41-18.393-41-41-41zm0 77.144c-19.93 0-36.144-16.214-36.144-36.144S51.57 35.356 71.5 35.356 107.644 51.57 107.644 71.5 91.43 107.644 71.5 107.644z"/></svg>