<svg xmlns="http://www.w3.org/2000/svg" viewBox="0 0 143 143"><circle fill="#1D9F38" cx="71.5" cy="71.5" r="71.5"/><path fill="#FFF" d="M54.838 73.967L46.84 62.918h-3.404v17.165h3.637V69.326l7.765 10.757h3.639V62.918h-3.639v11.049zm11.284-.835h7.301v-3.266h-7.301v-3.534h8.116v-3.413H62.486v17.165h12.009v-3.389h-8.372v-3.563zm49.539 8.11c2.266-2.684 4.839-5.728 4.839-9.74 0-4.013-2.573-7.057-4.842-9.744-1.283-1.519-2.609-3.086-2.998-4.343-.423-1.374-.226-3.541-.036-5.638.318-3.513.68-7.489-1.482-10.614-2.177-3.151-5.902-4.018-9.184-4.783-1.939-.452-3.942-.915-5.026-1.748-1.053-.809-2.08-2.65-3.068-4.431-1.712-3.079-3.653-6.57-7.222-7.792a7.825 7.825 0 0 0-2.54-.409c-2.567 0-5.017 1.119-7.387 2.203-1.862.851-3.791 1.732-5.215 1.732s-3.353-.881-5.216-1.732C63.914 23.119 61.464 22 58.898 22c-.889 0-1.743.136-2.542.409-3.567 1.223-5.507 4.715-7.224 7.795-.989 1.783-2.012 3.622-3.063 4.428-1.081.826-3.083 1.293-5.019 1.745-3.29.768-7.013 1.635-9.191 4.786-2.163 3.125-1.801 7.105-1.482 10.617.19 2.096.386 4.264-.036 5.638-.39 1.254-1.715 2.825-2.998 4.34-2.269 2.687-4.842 5.731-4.842 9.744 0 4.009 2.569 7.053 4.836 9.733 1.283 1.519 2.609 3.09 2.998 4.357.426 1.374.233 3.541.043 5.638-.319 3.509-.677 7.489 1.482 10.61 2.178 3.154 5.905 4.022 9.194 4.786 1.936.449 3.935.913 5.013 1.738 1.053.807 2.077 2.649 3.068 4.432 1.709 3.079 3.654 6.573 7.222 7.795.796.271 1.65.409 2.536.409 2.566 0 5.02-1.119 7.387-2.2 1.865-.851 3.794-1.731 5.222-1.731 1.424 0 3.353.877 5.218 1.731 2.367 1.081 4.821 2.2 7.384 2.2.888 0 1.742-.139 2.542-.409 3.567-1.219 5.505-4.708 7.218-7.789.992-1.783 2.015-3.625 3.075-4.431 1.081-.832 3.084-1.296 5.02-1.748 3.282-.761 7.007-1.626 9.187-4.779 2.162-3.129 1.801-7.108 1.482-10.621-.19-2.097-.386-4.264.037-5.634.383-1.262 1.71-2.832 2.996-4.347zm-4.575-4.293c-1.706 2.013-3.467 4.099-4.251 6.647-.815 2.645-.558 5.485-.309 8.237.226 2.489.459 5.063-.337 6.211-.811 1.177-3.222 1.738-5.555 2.283-2.551.594-5.191 1.206-7.298 2.825-2.094 1.599-3.448 4.034-4.759 6.389-1.216 2.187-2.478 4.448-3.824 4.912-1.17.391-3.458-.594-5.598-1.571-2.438-1.116-4.959-2.264-7.653-2.264-2.698 0-5.219 1.148-7.656 2.261-2.141.974-4.441 1.961-5.598 1.571-1.348-.459-2.612-2.725-3.828-4.918-1.307-2.351-2.662-4.786-4.75-6.386-2.112-1.619-4.75-2.229-7.297-2.823-2.331-.541-4.744-1.102-5.559-2.284-.792-1.15-.56-3.718-.339-6.204.248-2.755.505-5.602-.312-8.24-.781-2.551-2.542-4.635-4.248-6.65-1.614-1.91-3.286-3.89-3.286-5.444 0-1.555 1.675-3.538 3.291-5.448 1.703-2.016 3.464-4.099 4.248-6.643.815-2.648.557-5.489.309-8.24-.226-2.49-.459-5.061.336-6.212.812-1.177 3.228-1.742 5.562-2.283 2.548-.594 5.185-1.207 7.298-2.826 2.085-1.602 3.436-4.031 4.747-6.383 1.216-2.19 2.481-4.456 3.831-4.921 1.176-.413 3.458.593 5.598 1.574 2.438 1.112 4.958 2.264 7.654 2.264 2.694 0 5.215-1.151 7.653-2.264 2.14-.977 4.44-1.983 5.594-1.574 1.35.461 2.612 2.725 3.832 4.915 1.307 2.351 2.661 4.786 4.75 6.385 2.116 1.622 4.756 2.235 7.307 2.832 2.328.541 4.741 1.103 5.552 2.28.794 1.151.561 3.721.337 6.208-.249 2.751-.506 5.596.309 8.241.783 2.544 2.545 4.628 4.247 6.643 1.618 1.912 3.293 3.896 3.293 5.451-.002 1.556-1.674 3.536-3.291 5.449zm-18.704-4.16l-2.869-9.872h-3.801l-2.891 9.872-3.218-9.872h-3.941l5.689 17.165h2.706l3.544-11.934 3.566 11.934h2.706l5.69-17.165h-3.941l-3.24 9.872z"/></svg>