<?xml version="1.0" encoding="UTF-8" standalone="no"?>
<!-- Created with Inkscape (http://www.inkscape.org/) -->

<svg
   xmlns:dc="http://purl.org/dc/elements/1.1/"
   xmlns:cc="http://creativecommons.org/ns#"
   xmlns:rdf="http://www.w3.org/1999/02/22-rdf-syntax-ns#"
   xmlns:svg="http://www.w3.org/2000/svg"
   xmlns="http://www.w3.org/2000/svg"
   xmlns:sodipodi="http://sodipodi.sourceforge.net/DTD/sodipodi-0.dtd"
   xmlns:inkscape="http://www.inkscape.org/namespaces/inkscape"
   version="1.1"
   id="svg2"
   xml:space="preserve"
   width="46"
   height="43.665901"
   viewBox="0 0 46.000001 43.665902"
   sodipodi:docname="logo.svg"
   inkscape:version="0.92.1 r15371"><metadata
     id="metadata8"><rdf:RDF><cc:Work
         rdf:about=""><dc:format>image/svg+xml</dc:format><dc:type
           rdf:resource="http://purl.org/dc/dcmitype/StillImage" /><dc:title></dc:title></cc:Work></rdf:RDF></metadata><defs
     id="defs6"><clipPath
       clipPathUnits="userSpaceOnUse"
       id="clipPath18"><path
         d="M 0,149.794 H 157.801 V 0 H 0 Z"
         id="path16"
         inkscape:connector-curvature="0" /></clipPath></defs><sodipodi:namedview
     pagecolor="#ffffff"
     bordercolor="#666666"
     borderopacity="1"
     objecttolerance="10"
     gridtolerance="10"
     guidetolerance="10"
     inkscape:pageopacity="0"
     inkscape:pageshadow="2"
     inkscape:window-width="1541"
     inkscape:window-height="749"
     id="namedview4"
     showgrid="false"
     fit-margin-top="0"
     fit-margin-left="0"
     fit-margin-right="0"
     fit-margin-bottom="0"
     inkscape:zoom="1.1816228"
     inkscape:cx="22.999671"
     inkscape:cy="21.83302"
     inkscape:window-x="162"
     inkscape:window-y="113"
     inkscape:window-maximized="0"
     inkscape:current-layer="g10" /><g
     id="g10"
     inkscape:groupmode="layer"
     inkscape:label="Векторный смарт-объект2"
     transform="matrix(1.3333333,0,0,-1.3333333,-82.200997,121.69555)"><g
       id="g12"
       transform="matrix(0.21863049,0,0,0.21863049,61.65064,58.522193)"><g
         id="g14"
         clip-path="url(#clipPath18)"><g
           id="g20"
           transform="translate(66.6905,98.7257)"><path
             d="m 0,0 c 18.551,-3.156 38.028,-7.889 50.403,-12.097 -12.505,3.682 -32.11,7.626 -50.791,10.256 -0.921,0 -1.71,0.132 -2.631,0.263 0.79,-0.263 1.581,-0.526 2.502,-0.921 18.033,-5.39 37.122,-12.228 49.239,-17.751 -12.377,4.866 -31.728,11.046 -49.891,16.042 -0.789,0.132 -1.71,0.263 -2.631,0.526 0.922,-0.394 1.712,-0.789 2.502,-1.183 17.252,-7.627 35.561,-16.699 47.155,-23.405 -11.987,6.18 -30.556,14.595 -48.069,21.695 -0.79,0.263 -1.58,0.527 -2.502,0.921 0.791,-0.526 1.45,-0.921 2.24,-1.447 16.077,-9.861 33.472,-21.038 44.544,-28.795 -11.465,7.363 -29.121,17.75 -45.59,27.086 -0.79,0.395 -1.449,0.789 -2.371,1.184 0.791,-0.526 1.451,-1.052 2.111,-1.71 14.767,-11.834 30.723,-24.852 41.141,-33.661 -10.811,8.415 -27.422,20.907 -42.451,32.083 -0.659,0.526 -1.45,1.052 -2.109,1.578 0.528,-0.657 1.188,-1.314 1.716,-1.972 13.197,-13.675 27.581,-28.401 37.213,-38.132 -10.026,9.336 -25.065,23.668 -38.523,36.686 -0.791,0.657 -1.318,1.183 -1.978,1.84 0.528,-0.789 0.925,-1.578 1.454,-2.235 11.361,-15.121 23.909,-31.426 32.624,-41.945 -9.24,10.256 -22.444,26.035 -34.198,40.761 -0.528,0.658 -1.056,1.315 -1.716,1.973 0.397,-0.789 0.926,-1.578 1.323,-2.367 9.262,-16.567 19.973,-34.056 27.508,-45.232 -8.191,11.045 -19.559,28.139 -29.214,44.18 -0.529,0.789 -0.925,1.446 -1.454,2.236 0.266,-0.921 0.663,-1.71 0.929,-2.499 7.162,-17.619 15.641,-35.896 22.257,-47.73 -7.141,11.703 -16.409,29.716 -23.963,46.81 -0.398,0.92 -0.795,1.709 -1.192,2.498 0.266,-0.92 0.401,-1.841 0.666,-2.63 4.93,-18.277 11.307,-37.211 16.477,-49.439 -5.827,12.096 -12.861,30.899 -18.315,48.782 -0.266,0.92 -0.532,1.709 -0.798,2.498 0.135,-0.92 0.138,-1.709 0.273,-2.629 2.695,-18.804 6.838,-37.87 10.694,-50.361 -4.514,12.491 -9.314,31.557 -12.534,49.966 -0.135,0.921 -0.401,1.709 -0.535,2.63 0.003,-0.921 0.006,-1.709 0.009,-2.63 0.592,-18.934 2.368,-37.869 5.041,-50.361 -3.2,12.623 -5.764,31.558 -6.881,50.098 -0.003,0.92 -0.138,1.841 -0.141,2.761 -0.128,-0.92 -0.256,-1.841 -0.385,-2.761 -1.644,-18.671 -1.842,-37.212 -0.485,-49.44 -1.884,12.492 -2.343,31.031 -1.225,49.572 -0.003,0.92 -0.006,1.709 -0.009,2.629 -0.128,-0.789 -0.388,-1.709 -0.517,-2.498 -3.749,-18.409 -5.792,-36.028 -5.619,-47.731 -0.699,11.966 0.816,29.848 3.908,47.994 0.129,0.92 0.258,1.709 0.386,2.63 -0.26,-0.921 -0.652,-1.71 -0.911,-2.498 -5.593,-17.62 -9.217,-34.187 -9.968,-45.101 0.224,11.176 3.452,28.138 8.387,45.627 0.261,0.788 0.52,1.709 0.649,2.498 -0.26,-0.789 -0.783,-1.578 -1.043,-2.367 -7.306,-16.568 -12.38,-31.952 -13.792,-41.814 1.016,10.256 5.695,25.904 12.342,42.603 0.26,0.789 0.652,1.578 0.913,2.367 -0.524,-0.658 -0.916,-1.447 -1.308,-2.104 -8.756,-15.516 -14.887,-29.454 -16.566,-38.132 1.414,9.204 7.15,23.405 15.248,39.052 0.392,0.658 0.784,1.447 1.176,2.235 -0.524,-0.657 -1.048,-1.315 -1.572,-1.972 -9.297,-13.278 -15.839,-24.829 -18.027,-32.402 -0.008,0.033 -0.016,0.066 -0.025,0.099 2.021,7.97 8.067,20.096 16.865,33.487 0.785,1.314 0.523,0.92 1.307,2.103 -0.916,-1.051 -0.786,-0.789 -1.835,-1.709 -8.979,-10.087 -15.418,-18.771 -18.117,-24.84 -0.017,0.137 -0.035,0.275 -0.051,0.413 2.547,6.483 8.643,15.506 17.244,25.742 0.524,0.658 1.047,1.315 1.57,1.972 -0.655,-0.525 -1.179,-1.052 -1.703,-1.578 -5.899,-5.259 -10.615,-10.124 -13.888,-14.332 -1.553,-2.039 -2.761,-3.743 -3.658,-5.326 -0.002,0.143 -0.007,0.286 -0.009,0.429 0.877,1.702 1.969,3.515 3.402,5.555 3.272,4.47 7.725,9.467 13.359,15.121 0.524,0.526 1.048,1.052 1.704,1.578 -0.656,-0.395 -1.181,-0.789 -1.837,-1.184 -6.164,-4.602 -10.752,-8.678 -13.895,-12.228 -1.035,-1.126 -1.879,-2.189 -2.535,-3.2 0.015,0.191 0.026,0.383 0.042,0.574 0.606,1.023 1.368,2.122 2.359,3.283 3.142,3.813 7.598,8.153 13.498,12.886 0.656,0.526 1.18,1.052 1.705,1.446 -0.657,-0.262 -1.182,-0.525 -1.838,-0.92 -6.166,-3.813 -10.757,-7.1 -13.508,-9.993 -0.68,-0.682 -1.162,-1.265 -1.618,-1.835 0.038,0.234 0.082,0.466 0.122,0.699 0.421,0.556 0.875,1.173 1.493,1.794 2.751,3.155 7.208,6.837 13.243,10.781 0.524,0.395 1.181,0.789 1.705,1.184 -0.656,-0.263 -1.181,-0.526 -1.838,-0.657 -6.038,-3.025 -10.5,-5.655 -12.99,-8.021 -0.262,-0.33 -0.525,-0.627 -0.754,-0.907 0.058,0.241 0.106,0.485 0.167,0.725 0.206,0.273 0.434,0.555 0.716,0.839 2.49,2.63 6.818,5.654 12.724,8.81 0.656,0.394 1.181,0.657 1.837,1.052 -0.656,-0.263 -1.182,-0.395 -1.838,-0.526 -6.042,-2.104 -10.111,-4.076 -12.077,-6.049 -0.066,-0.066 -0.136,-0.13 -0.211,-0.192 0.083,0.258 0.171,0.515 0.258,0.772 0.027,0.026 0.059,0.05 0.083,0.078 2.096,2.104 6.164,4.47 12.072,6.837 0.526,0.263 1.051,0.526 1.708,0.789 -0.526,-0.132 -1.184,-0.132 -1.709,-0.263 -5.759,-1.31 -9.558,-2.751 -11.011,-4.322 0.112,0.282 0.215,0.567 0.331,0.847 1.782,1.762 5.375,3.408 10.938,5.053 v -0.131 c 0.525,0.262 1.05,0.394 1.707,0.657 -0.526,-0.131 -1.051,-0.131 -1.577,-0.131 -2.761,-0.264 -4.995,-0.658 -6.703,-1.052 -0.919,-0.263 -1.576,-0.526 -2.101,-0.79 -0.262,-0.131 -0.525,-0.262 -0.787,-0.394 -0.012,-0.011 -0.048,-0.016 -0.067,-0.026 0.116,0.245 0.247,0.48 0.367,0.723 1.45,0.248 1.691,1.043 2.979,1.539 1.708,0.526 3.941,1.051 6.7,1.577 0.527,0 1.052,0.132 1.578,0.263 -0.526,0 -1.053,0.132 -1.447,0.132 -2.631,0.131 -4.602,0 -6.18,-0.132 -0.657,-0.131 -1.314,-0.263 -1.708,-0.394 -0.204,-0.102 -0.175,-0.281 -0.518,-0.296 0.146,0.263 0.297,0.521 0.446,0.781 0.184,0.029 0.261,0.099 0.333,0.172 0.525,0.263 1.181,0.527 1.97,0.657 1.576,0.395 3.548,0.658 6.177,0.79 h 1.578 c -0.526,0.131 -0.921,0.263 -1.448,0.394 -2.368,0.395 -4.21,0.658 -5.525,0.658 -0.657,0 -1.052,0 -1.446,-0.132 -0.025,-0.008 -0.074,-0.003 -0.112,-0.005 0.168,0.266 0.334,0.532 0.505,0.794 0.394,0.132 0.919,0.263 1.576,0.263 1.446,0.263 3.287,0.131 5.654,-0.132 0.526,0 1.053,-0.131 1.579,-0.131 -0.527,0.263 -0.922,0.394 -1.317,0.526 -2.106,0.789 -3.818,1.315 -4.87,1.578 -0.475,0.119 -0.828,0.127 -1.088,0.128 0.166,0.232 0.324,0.469 0.493,0.698 0.333,0.077 0.677,0.094 1.118,0.094 1.183,-0.131 2.894,-0.394 5.131,-1.051 0.526,-0.132 0.921,-0.132 1.448,-0.264 -0.396,0.264 -0.791,0.526 -1.186,0.658 -1.845,1.183 -3.294,1.84 -4.216,2.367 -0.264,0.131 -0.395,0.131 -0.659,0.263 -0.074,0 -0.026,-0.08 -0.085,-0.059 0.201,0.252 0.395,0.511 0.6,0.76 0.043,-0.013 0.08,-0.024 0.14,-0.044 0.132,0 0.395,0 0.659,-0.131 1.052,-0.263 2.501,-0.789 4.476,-1.841 0.396,-0.132 0.922,-0.263 1.317,-0.395 -0.395,0.263 -0.66,0.526 -0.923,0.789 -1.715,1.447 -2.902,2.499 -3.693,3.156 -0.132,0 0.132,-0.131 -0.263,0.131 -0.245,0.244 0.069,0.042 -0.091,0.218 0.199,0.223 0.397,0.446 0.598,0.666 0.138,-0.04 0.308,-0.124 0.411,-0.226 0.922,-0.526 2.239,-1.315 3.953,-2.63 0.395,-0.131 0.791,-0.394 1.186,-0.657 -0.264,0.394 -0.528,0.657 -0.792,1.052 -1.453,1.709 -2.378,3.024 -3.038,3.813 -0.075,0.075 -0.113,0.189 -0.152,0.301 0.235,0.24 0.473,0.476 0.712,0.713 0.075,-0.075 0.151,-0.15 0.226,-0.225 0.66,-0.789 1.847,-1.841 3.431,-3.419 0.264,-0.263 0.528,-0.526 0.923,-0.92 -0.264,0.394 -0.397,0.788 -0.661,1.314 -1.059,1.842 -1.853,3.419 -2.252,4.471 -0.098,0.195 -0.051,0.031 -0.128,0.253 0.264,0.244 0.534,0.484 0.802,0.723 0.036,-0.062 0.07,-0.124 0.113,-0.187 0.529,-1.052 1.454,-2.367 2.644,-4.208 0.396,-0.394 0.661,-0.789 0.924,-1.052 -0.133,0.395 -0.266,0.921 -0.53,1.316 -0.797,2.235 -1.329,3.944 -1.596,5.259 -0.015,0.072 -0.022,0.13 -0.034,0.197 0.283,0.237 0.57,0.469 0.857,0.702 0.029,-0.08 0.054,-0.161 0.095,-0.242 0.398,-1.183 0.93,-2.761 1.989,-4.865 0.265,-0.525 0.397,-0.789 0.662,-1.315 -0.002,0.526 -0.135,1.052 -0.268,1.578 -0.535,2.499 -0.805,4.471 -0.81,5.917 -10e-4,0.088 0,0.162 0,0.243 0.292,0.222 0.591,0.435 0.887,0.652 0.013,-0.083 0.013,-0.15 0.031,-0.237 0.137,-1.446 0.538,-3.419 1.335,-5.786 0.133,-0.526 0.266,-0.92 0.4,-1.446 -0.003,0.657 -0.005,1.183 -0.007,1.709 -0.272,2.762 -0.279,4.865 -0.022,6.575 0.012,0.171 0.034,0.323 0.061,0.468 0.281,0.192 0.572,0.371 0.857,0.558 -0.001,-0.16 -0.001,-0.321 0,-0.5 0.006,-1.578 0.145,-3.814 0.549,-6.443 0.001,-0.526 0.135,-0.921 0.268,-1.447 -0.002,0.526 0.127,1.052 0.125,1.71 0.122,2.892 0.376,5.259 0.764,7.232 0.067,0.238 0.135,0.45 0.202,0.673 0.301,0.184 0.613,0.351 0.918,0.529 -0.324,-1.968 -0.451,-4.605 -0.439,-7.908 0.002,-0.526 0.135,-1.052 0.137,-1.71 0.13,0.658 0.259,1.315 0.389,1.841 0.538,3.704 1.224,6.685 2.023,8.972 0.333,0.179 0.675,0.347 1.013,0.52 -0.66,-2.275 -1.202,-5.312 -1.592,-9.097 0.002,-0.526 -0.127,-1.184 -0.125,-1.841 0.261,0.657 0.39,1.315 0.651,1.972 1.082,4.134 2.222,7.5 3.418,10.118 0.361,0.168 0.724,0.333 1.089,0.494 -1.082,-2.668 -2.104,-6.148 -3.061,-10.48 -0.13,-0.527 -0.127,-1.184 -0.257,-1.841 0.261,0.657 0.521,1.314 0.782,1.972 1.766,4.69 3.536,8.496 5.308,11.494 0.334,0.129 0.662,0.271 0.999,0.395 -1.551,-3.077 -3.136,-7.052 -4.86,-11.889 -0.13,-0.658 -0.39,-1.315 -0.519,-1.972 0.392,0.657 0.653,1.314 1.045,1.972 2.704,5.236 5.242,9.621 7.62,12.99 0.332,0.102 0.671,0.189 1.005,0.286 -2.221,-3.412 -4.612,-7.936 -7.178,-13.539 -0.261,-0.526 -0.522,-1.183 -0.782,-1.972 0.392,0.657 0.784,1.315 1.308,1.972 3.752,5.895 7.189,10.724 10.409,14.505 0.393,0.088 0.778,0.19 1.174,0.271 -3.184,-3.856 -6.49,-8.937 -10.135,-15.171 -0.393,-0.657 -0.785,-1.314 -1.045,-1.972 0.523,0.658 0.916,1.184 1.44,1.841 5.188,6.633 10.028,12.07 14.277,16.047 0.296,0.039 0.592,0.077 0.889,0.113 -4.082,-4.116 -8.753,-9.819 -13.718,-16.817 -0.524,-0.526 -0.916,-1.184 -1.308,-1.841 0.524,0.526 1.18,1.052 1.703,1.709 6.852,7.268 13.328,13.22 18.84,17.362 0.257,0.009 0.514,0.014 0.772,0.02 C 6.765,30.051 0.506,23.818 -6.236,16.173 c -0.524,-0.657 -1.047,-1.315 -1.572,-1.84 0.656,0.525 1.312,1.051 1.967,1.577 9.011,7.863 17.468,14.173 24.391,18.247 0.215,-0.017 0.429,-0.033 0.644,-0.052 C 12.493,29.814 4.207,23.106 -4.653,14.858 -5.31,14.333 -5.834,13.807 -6.488,13.149 c 0.786,0.526 1.442,0.92 2.229,1.446 11.577,8.23 22.647,14.759 31.118,18.38 0.147,-0.031 0.291,-0.066 0.437,-0.098 C 19.072,28.989 8.277,22.151 -3.202,13.412 -3.989,12.886 -4.646,12.36 -5.301,11.834 c 0.787,0.395 1.575,0.789 2.363,1.184 14.785,8.394 28.997,14.702 38.943,17.292 0.046,-0.018 0.092,-0.032 0.137,-0.049 -9.688,-2.96 -23.573,-9.766 -38.155,-18.558 -0.787,-0.526 -1.443,-0.921 -2.23,-1.447 0.788,0.263 1.575,0.658 2.495,0.921 C 15.057,18.54 31.475,23.8 42.383,25.377 31.739,23.405 15.587,17.488 -1.086,9.73 -1.873,9.335 -2.661,8.941 -3.448,8.547 c 0.92,0.263 1.707,0.526 2.496,0.657 17.863,5.523 35.47,9.205 47.039,9.731 C 34.651,17.882 17.31,13.543 -0.421,7.626 -1.209,7.363 -1.996,6.969 -2.916,6.706 c 0.92,0.131 1.84,0.263 2.629,0.395 18.395,3.418 36.93,5.259 49.16,4.733 -12.098,0 -30.497,-2.499 -48.76,-6.443 -0.92,-0.263 -1.708,-0.526 -2.628,-0.658 0.92,0 1.709,0.132 2.63,0.132 C 18.914,6.049 37.979,5.917 50.478,4.208 37.981,5.391 18.918,4.865 0.253,3.024 -0.667,2.893 -1.587,2.761 -2.376,2.629 -1.586,2.499 -0.666,2.499 0.255,2.367 19.062,1.446 38.53,-0.92 51.031,-3.945 38.4,-1.446 18.934,0.263 0.13,0.526 H -2.632 C -1.711,0.395 -0.921,0.263 0,0 m 46.171,25.634 c 1.15,0.265 2.269,0.508 3.323,0.703 -1.111,-0.16 -2.292,-0.368 -3.506,-0.598 -2.639,1.556 -5.395,2.934 -8.255,4.112 2.502,0.939 4.831,1.711 6.936,2.281 -2.236,-0.501 -4.723,-1.215 -7.392,-2.101 -2.475,0.997 -5.02,1.855 -7.633,2.546 3.482,1.824 6.639,3.256 9.356,4.218 -2.897,-0.866 -6.288,-2.24 -10.038,-4.041 -2.241,0.566 -4.529,1.006 -6.855,1.332 4.133,2.829 7.796,4.917 10.804,6.101 -3.249,-1.158 -7.191,-3.209 -11.619,-5.997 -1.962,0.249 -3.95,0.412 -5.962,0.481 4.357,3.702 8.171,6.288 11.215,7.494 -3.244,-1.169 -7.386,-3.756 -12.11,-7.471 -0.453,0.01 -0.902,0.035 -1.357,0.035 -1.283,0 -2.556,-0.048 -3.821,-0.122 4.313,4.488 8.055,7.4 10.926,8.406 C 17.034,41.987 12.976,39.046 8.291,34.534 6.807,34.426 5.334,34.274 3.88,34.068 c 0.404,0.501 0.807,0.991 1.208,1.455 1.688,2.12 3.237,3.675 4.787,4.946 0.846,0.566 1.41,0.989 2.115,1.413 0.705,0.283 1.405,2.544 2.106,4.099 C 13.253,44.426 12.555,42.165 11.849,41.882 11.002,41.458 10.297,41.035 9.593,40.469 7.901,39.198 6.211,37.643 4.239,35.665 3.733,35.101 3.223,34.507 2.706,33.894 1.441,33.69 0.192,33.443 -1.046,33.168 c 0.546,0.842 1.085,1.641 1.611,2.355 1.407,1.978 2.815,3.392 3.943,4.24 1.267,0.989 2.1,5.37 3.078,8.761 -1.119,-3.391 -1.951,-7.772 -3.361,-8.761 -1.41,-0.99 -2.819,-2.262 -4.367,-4.24 -0.634,-0.782 -1.284,-1.661 -1.942,-2.595 -1.142,-0.274 -2.272,-0.574 -3.391,-0.908 0.557,1.088 1.109,2.07 1.662,2.938 1.265,1.696 2.397,1.554 3.09,5.087 0.554,3.392 1.108,6.642 1.66,10.175 -0.694,-3.391 -1.388,-6.783 -2.083,-10.175 -0.695,-3.391 -1.966,-3.533 -3.233,-5.229 -0.69,-0.912 -1.38,-1.943 -2.07,-3.085 -0.994,-0.314 -1.98,-0.65 -2.953,-1.011 0.487,1.137 0.985,2.137 1.495,2.966 0.139,0.424 0.422,0.707 0.703,0.989 0.14,0.283 0.565,0 0.562,0.848 0.135,1.837 0.271,3.392 0.264,5.229 0.13,3.533 0.4,6.783 0.529,10.316 -0.27,-3.533 -0.541,-6.783 -0.811,-10.316 -0.136,-1.696 -0.271,-3.392 -0.547,-5.229 0.003,-0.848 -0.28,-0.707 -0.562,-1.13 -0.282,-0.142 -0.563,-0.566 -0.844,-0.849 -0.637,-0.895 -1.259,-1.994 -1.869,-3.251 -0.872,-0.341 -1.737,-0.698 -2.59,-1.075 0.375,1.129 0.779,2.072 1.214,2.772 l -10e-4,0.142 c 0.703,0.989 0.124,5.087 -0.171,8.62 -0.154,3.533 -0.449,6.925 -0.743,10.316 0.153,-3.391 0.306,-6.783 0.46,-10.316 0.154,-3.533 0.734,-7.773 -0.251,-9.044 -0.534,-0.761 -1.035,-1.758 -1.507,-2.943 -0.818,-0.379 -1.626,-0.775 -2.425,-1.187 0.246,1.05 0.558,1.882 0.97,2.434 -1.153,6.5 -2.732,13.425 -4.028,20.35 1.155,-6.925 2.167,-13.567 3.322,-20.491 0.145,-0.849 -0.28,-0.707 -0.42,-0.99 -0.141,-0.282 -0.281,-0.707 -0.421,-0.989 -0.079,-0.241 -0.159,-0.489 -0.238,-0.733 -0.807,-0.43 -1.6,-0.88 -2.386,-1.342 0.02,0.185 0.046,0.361 0.086,0.52 0.14,0.283 0.139,0.565 0.279,0.849 0,0.141 -0.286,0.988 -0.571,1.836 -2.143,6.643 -4.144,13.002 -6.287,19.785 1.86,-6.783 3.72,-13.142 5.722,-19.926 0.456,-1.797 0.391,-2.68 0.211,-3.388 -0.831,-0.5 -1.646,-1.021 -2.451,-1.557 -0.001,0.043 -0.004,0.1 -0.004,0.14 0.137,0.989 0.14,0.283 -0.145,1.131 -0.428,0.848 -0.713,1.554 -1.14,2.402 -2.848,6.36 -5.696,12.436 -8.686,18.796 2.708,-6.501 5.273,-12.578 8.122,-19.078 0.286,-0.848 0.571,-1.555 0.998,-2.403 0.286,-0.848 0.286,-1.13 0.146,-1.272 -0.018,-0.072 -0.028,-0.146 -0.041,-0.218 -0.714,-0.49 -1.419,-0.991 -2.111,-1.507 -0.192,0.49 -1.449,2.269 -2.236,3.704 -3.695,5.935 -7.249,11.729 -10.944,17.664 3.414,-6.076 6.825,-11.87 10.239,-18.088 0.743,-1.232 1.917,-3.106 2.207,-3.848 -0.729,-0.561 -1.449,-1.133 -2.154,-1.724 -0.266,0.646 -0.994,1.016 -1.452,1.473 -0.568,0.707 -0.994,1.414 -1.562,2.12 -4.401,5.512 -8.517,10.741 -12.917,16.252 4.118,-5.653 8.094,-11.023 12.353,-16.676 0.914,-1.299 1.827,-2.597 2.742,-3.897 -0.723,-0.628 -1.431,-1.27 -2.124,-1.928 -1.173,1.168 -2.247,2.238 -3.436,3.423 -4.963,4.946 -9.785,9.61 -14.748,14.556 4.823,-5.087 9.362,-10.034 14.184,-15.122 1.207,-1.202 2.285,-2.284 3.358,-3.472 -0.686,-0.669 -1.355,-1.354 -2.009,-2.052 -1.269,0.901 -2.451,1.811 -3.742,2.84 -5.525,4.239 -10.91,8.337 -16.437,12.719 5.386,-4.523 10.63,-8.763 16.016,-13.285 1.145,-1.015 2.304,-1.926 3.552,-2.918 -0.679,-0.745 -1.34,-1.505 -1.985,-2.281 -1.218,0.793 -2.49,1.521 -3.677,2.232 -6.089,3.533 -11.754,7.066 -17.843,10.599 5.949,-3.816 11.473,-7.349 17.421,-11.165 1.156,-0.806 2.33,-1.594 3.562,-2.324 -0.69,-0.854 -1.356,-1.726 -2.002,-2.614 -0.316,0.215 -0.636,0.443 -0.979,0.557 -0.708,0.425 -1.557,0.707 -2.265,1.131 -6.369,2.826 -12.597,5.511 -18.967,8.479 6.229,-3.109 12.316,-6.076 18.686,-9.185 0.708,-0.283 1.416,-0.707 2.266,-1.131 0.305,-0.102 0.574,-0.277 0.833,-0.453 -0.617,-0.868 -1.212,-1.752 -1.787,-2.652 -0.84,0.267 -1.849,0.628 -2.713,0.844 -6.649,2.12 -13.157,4.098 -19.806,6.076 6.65,-2.26 12.875,-4.38 19.526,-6.783 0.823,-0.274 1.743,-0.613 2.523,-0.874 -0.595,-0.962 -1.17,-1.938 -1.716,-2.932 -0.547,0.091 -1.095,0.182 -1.642,0.273 -6.93,1.272 -13.435,2.544 -20.363,3.675 6.788,-1.414 13.294,-2.827 20.224,-4.382 0.466,-0.077 0.933,-0.161 1.4,-0.262 -0.575,-1.078 -1.112,-2.177 -1.626,-3.289 -0.109,0.006 -0.211,0.009 -0.328,0.019 -6.925,0.423 -13.568,0.706 -20.636,1.13 6.927,-0.565 13.572,-1.272 20.639,-1.837 0.006,-0.001 0.01,-0.001 0.016,-0.002 -0.561,-1.252 -1.09,-2.521 -1.572,-3.814 h -1.115 c -0.848,-0.141 -1.696,-0.141 -2.543,-0.282 -1.696,0 -3.392,-0.142 -5.228,-0.283 -3.392,-0.141 -6.782,-0.424 -10.314,-0.565 3.532,0 6.924,0.141 10.315,0.282 1.837,0 3.533,0 5.228,0.142 h 2.544 c 0.279,0 0.567,0 0.847,0.003 -0.482,-1.338 -0.906,-2.703 -1.3,-4.08 -1.73,-0.58 -4.299,-0.903 -6.736,-1.293 -3.389,-0.707 -6.637,-1.272 -10.167,-1.979 3.53,0.565 6.779,0.989 10.31,1.555 1.695,0.282 3.39,0.565 5.085,0.706 0.51,0.086 0.936,0.185 1.308,0.296 -0.445,-1.625 -0.832,-3.273 -1.15,-4.946 -0.515,-0.154 -1.199,-0.272 -1.695,-0.437 -0.705,-0.283 -1.553,-0.424 -2.399,-0.707 -3.388,-1.13 -6.494,-2.12 -9.882,-3.109 3.389,0.848 6.636,1.837 10.024,2.685 0.847,0.283 1.553,0.565 2.4,0.707 0.468,0.156 1.019,0.269 1.469,0.387 -0.311,-1.702 -0.57,-3.422 -0.744,-5.168 -0.298,-0.297 -0.723,-0.584 -1.412,-0.872 -3.104,-1.413 -6.208,-2.827 -9.453,-4.239 3.245,1.412 6.35,2.684 9.596,3.956 0.586,0.245 0.96,0.473 1.229,0.695 -0.154,-1.651 -0.233,-3.322 -0.26,-5.006 -0.08,-0.164 -0.175,-0.336 -0.246,-0.494 -0.7,-1.695 -4.228,-3.391 -7.189,-5.228 1.551,0.848 2.962,1.696 4.513,2.544 1.552,0.847 2.256,1.554 2.678,2.261 0.065,0.144 0.159,0.296 0.234,0.443 -0.002,-0.272 -0.019,-0.541 -0.018,-0.814 0.005,-1.56 0.085,-3.101 0.199,-4.634 -0.411,-0.963 -0.819,-1.796 -0.954,-2.627 -0.28,-0.848 -1.407,-1.837 -2.816,-2.967 0.705,0.565 1.409,0.989 2.114,1.554 0.705,0.565 0.562,0.848 0.702,1.272 0.281,0.707 0.56,1.555 0.981,2.402 10e-4,0.002 0.002,0.003 0.002,0.004 0.171,-2.137 0.444,-4.244 0.816,-6.318 -0.671,-1.685 -1.129,-3.217 -1.345,-4.567 0.239,1.219 0.721,2.611 1.42,4.156 0.545,-2.921 1.281,-5.774 2.203,-8.545 -0.318,-1.096 -0.581,-2.138 -0.771,-3.101 0.204,0.909 0.489,1.893 0.83,2.927 0.897,-2.673 1.949,-5.276 3.172,-7.784 -0.055,-0.312 -0.119,-0.635 -0.166,-0.937 0.055,0.284 0.129,0.59 0.193,0.886 10.572,-21.633 32.788,-36.587 58.512,-36.587 35.754,0 64.764,29.112 64.639,64.866 C 78.088,-6.45 65.231,14.311 46.171,25.634"
             style="fill:#577372;fill-opacity:1;fill-rule:evenodd;stroke:none"
             id="path22"
             inkscape:connector-curvature="0" /></g><g
           id="g24"
           transform="translate(102.1329,129.0382)"><path
             d="m 0,0 c 28.887,-6.562 50.608,-32.425 50.716,-63.239 0.125,-35.754 -28.886,-64.866 -64.64,-64.866 -3.222,0 -6.386,0.244 -9.482,0.696 4.644,-1.054 9.47,-1.629 14.434,-1.629 35.754,0 64.765,29.111 64.64,64.866 C 55.554,-31.619 31.323,-4.581 0,0"
             style="fill:#eaeaea;fill-opacity:1;fill-rule:evenodd;stroke:none"
             id="path26"
             inkscape:connector-curvature="0" /></g></g></g></g></svg>