<svg xmlns="http://www.w3.org/2000/svg" xmlns:xlink="http://www.w3.org/1999/xlink" version="1.1" enable-background="new 0 0 18 18" xml:space="preserve" width="19.687861297167956" height="22" style=""><rect id="backgroundrect" width="100%" height="100%" x="0" y="0" fill="none" stroke="none" class="selected" style="" opacity="1"/>

<g class="currentLayer" style=""><title>Layer 1</title><path d="M9.008,0C5.413,0,2.489,2.924,2.489,6.519c0,4.461,5.834,11.01,6.082,11.286c0.233,0.26,0.641,0.259,0.874,0  c0.248-0.277,6.082-6.825,6.082-11.286C15.527,2.924,12.602,0,9.008,0L9.008,0z M9.008,9.799c-1.808,0-3.28-1.471-3.28-3.28  c0-1.808,1.471-3.28,3.28-3.28c1.809,0,3.28,1.471,3.28,3.28C12.288,8.327,10.816,9.799,9.008,9.799L9.008,9.799z M9.008,9.799" id="svg_1" class="" fill="#009900" fill-opacity="1"/></g></svg>