<?xml version="1.0" encoding="UTF-8" standalone="no"?>
<!DOCTYPE svg PUBLIC "-//W3C//DTD SVG 1.1//EN" "http://www.w3.org/Graphics/SVG/1.1/DTD/svg11.dtd">
<svg version="1.1" xmlns="http://www.w3.org/2000/svg" xmlns:xlink="http://www.w3.org/1999/xlink" preserveAspectRatio="xMidYMid meet" viewBox="0 0 640 640" width="64" height="64"><defs><path d="M103.07 0.09L105.04 0.24L107 0.47L108.95 0.77L110.88 1.15L112.8 1.6L114.7 2.13L116.58 2.73L118.44 3.41L120.27 4.17L122.08 5L123.85 5.9L125.6 6.88L127.31 7.94L128.98 9.07L130.61 10.28L132.2 11.57L133.75 12.93L135.25 14.36L234.31 113.46L235.75 114.96L237.11 116.51L238.4 118.1L239.61 119.73L240.75 121.4L241.81 123.11L242.79 124.86L243.7 126.63L244.53 128.44L245.29 130.27L245.97 132.13L246.58 134.01L247.11 135.91L247.56 137.83L247.94 139.76L248.24 141.71L248.47 143.67L248.62 145.64L248.7 147.61L248.7 149.59L248.63 151.56L248.48 153.54L248.26 155.52L247.96 157.48L247.58 159.44L247.13 161.39L246.61 163.33L246.01 165.25L245.33 167.16L244.58 169.04L243.76 170.91L242.86 172.74L241.88 174.55L240.83 176.34L239.71 178.08L238.51 179.8L237.23 181.48L235.88 183.12L234.46 184.72L232.96 186.28L216.5 202.77L183 236.23L183.14 236.46L183.27 236.69L183.4 236.92L183.54 237.15L183.67 237.38L183.8 237.62L183.94 237.85L184.07 238.08L184.2 238.32L184.33 238.55L184.47 238.79L184.6 239.02L184.73 239.26L184.86 239.49L185 239.73L185.13 239.97L185.26 240.21L185.4 240.45L185.53 240.68L185.66 240.92L185.8 241.16L185.93 241.41L186.06 241.65L186.2 241.89L186.33 242.13L186.47 242.37L186.6 242.62L186.73 242.86L186.87 243.11L187 243.35L187.14 243.6L187.41 244.09L187.55 244.34L187.68 244.58L187.82 244.83L187.96 245.08L188.1 245.33L188.23 245.58L188.37 245.83L189.7 248.22L191.05 250.65L192.43 253.12L193.84 255.63L195.28 258.19L196.75 260.78L198.25 263.41L199.78 266.08L201.35 268.78L202.96 271.52L204.61 274.3L206.29 277.11L208.02 279.95L209.79 282.83L211.61 285.74L213.46 288.68L215.37 291.64L217.32 294.64L219.33 297.66L221.38 300.72L223.49 303.79L225.65 306.9L227.87 310.02L230.14 313.17L232.47 316.35L234.86 319.54L237.31 322.76L239.83 326L242.41 329.25L245.05 332.53L247.76 335.82L250.54 339.13L253.38 342.45L256.3 345.79L259.29 349.14L262.36 352.51L265.5 355.88L268.71 359.27L272 362.67L275.38 366.08L278.78 369.45L282.17 372.74L285.54 375.95L288.91 379.08L292.27 382.14L295.61 385.13L298.94 388.04L302.26 390.88L305.56 393.66L308.84 396.36L312.11 399L315.36 401.57L318.59 404.08L321.8 406.53L324.99 408.92L328.16 411.25L331.3 413.51L334.42 415.73L337.52 417.88L340.6 419.99L343.64 422.04L346.66 424.04L349.65 425.99L352.62 427.89L355.55 429.74L358.46 431.55L361.33 433.32L364.17 435.04L366.97 436.72L369.75 438.37L372.49 439.97L375.19 441.54L377.85 443.07L380.48 444.56L383.07 446.03L385.62 447.46L388.13 448.86L390.6 450.24L393.03 451.58L395.41 452.91L395.67 453.05L395.93 453.19L396.19 453.34L396.44 453.48L396.7 453.62L396.95 453.76L397.21 453.91L397.46 454.05L397.71 454.19L397.96 454.33L398.21 454.47L398.46 454.61L398.71 454.75L398.96 454.88L399.21 455.02L399.46 455.16L399.71 455.3L399.95 455.44L400.2 455.57L400.44 455.71L400.69 455.85L400.93 455.98L401.18 456.12L401.42 456.26L401.66 456.39L401.91 456.53L402.15 456.66L402.39 456.79L402.63 456.93L402.87 457.06L403.11 457.2L403.35 457.33L403.59 457.46L403.83 457.59L404.07 457.73L404.31 457.86L404.55 457.99L404.79 458.12L405.02 458.25L405.26 458.38L455.18 408.5L456.74 407L458.33 405.58L459.97 404.23L461.65 402.96L463.36 401.76L465.11 400.64L466.89 399.59L468.7 398.62L470.53 397.72L472.4 396.89L474.28 396.14L476.18 395.47L478.1 394.87L480.04 394.34L481.99 393.89L483.95 393.51L485.92 393.21L487.89 392.99L489.87 392.84L491.84 392.76L493.82 392.76L495.79 392.84L497.76 392.99L499.72 393.22L501.67 393.52L503.6 393.9L505.52 394.35L507.43 394.88L509.31 395.48L511.17 396.16L513 396.91L514.81 397.74L516.59 398.65L518.33 399.63L520.04 400.69L521.72 401.82L523.35 403.03L524.95 404.31L526.5 405.67L528 407.11L627.06 506.2L628.5 507.71L629.86 509.26L631.15 510.85L632.36 512.49L633.49 514.16L634.55 515.87L635.54 517.62L636.44 519.4L637.28 521.2L638.03 523.04L638.71 524.9L639.32 526.78L639.85 528.68L640.3 530.6L640.68 532.54L640.98 534.49L641.21 536.45L641.36 538.42L641.44 540.39L641.44 542.37L641.37 544.35L641.22 546.33L641 548.3L640.7 550.27L640.33 552.23L639.88 554.19L639.36 556.12L638.76 558.05L638.09 559.95L637.34 561.84L636.52 563.7L635.63 565.54L634.65 567.36L633.61 569.14L632.49 570.89L631.3 572.61L630.03 574.29L628.69 575.93L627.27 577.53L625.78 579.09L596.87 606.26L595.97 606.96L595.07 607.65L594.15 608.34L593.23 609.02L592.31 609.69L591.38 610.36L590.44 611.02L589.49 611.68L588.54 612.33L587.58 612.97L586.62 613.61L585.65 614.24L584.68 614.86L583.7 615.48L582.71 616.09L581.72 616.7L580.72 617.3L579.72 617.89L578.71 618.47L577.7 619.05L576.68 619.63L575.66 620.19L574.63 620.75L573.59 621.3L572.55 621.84L571.51 622.38L570.46 622.91L569.41 623.44L568.35 623.95L567.29 624.46L566.22 624.97L565.15 625.46L564.08 625.95L563 626.43L561.92 626.9L560.83 627.37L559.74 627.83L558.65 628.28L557.55 628.72L556.44 629.16L555.42 629.55L554.39 629.94L553.36 630.32L552.33 630.7L551.31 631.06L550.28 631.42L549.26 631.78L548.23 632.12L547.21 632.46L546.18 632.79L545.16 633.12L544.14 633.43L543.11 633.74L542.09 634.05L541.06 634.34L540.04 634.63L539.02 634.91L537.99 635.19L536.96 635.46L535.94 635.72L534.91 635.97L533.88 636.22L532.85 636.46L531.82 636.7L530.79 636.92L529.76 637.15L528.73 637.36L527.7 637.57L526.66 637.77L525.62 637.96L524.59 638.15L523.55 638.33L522.51 638.5L521.46 638.67L520.42 638.83L519.37 638.98L518.32 639.13L517.27 639.27L516.22 639.41L515.16 639.54L514.41 639.61L513.13 639.71L511.33 639.83L509.03 639.93L506.23 640L502.94 640.02L499.17 639.98L494.94 639.84L490.25 639.59L485.11 639.22L479.53 638.69L473.53 638L467.11 637.11L460.29 636.02L453.06 634.69L445.45 633.11L437.47 631.27L429.12 629.13L420.41 626.69L411.35 623.92L401.96 620.79L392.24 617.3L382.21 613.41L371.87 609.12L361.23 604.4L350.31 599.22L339.11 593.58L327.64 587.45L315.92 580.81L303.95 573.63L291.75 565.91L279.32 557.62L266.68 548.74L253.83 539.25L240.78 529.12L227.55 518.35L214.15 506.91L200.58 494.78L186.85 481.94L172.98 468.37L163.05 458.35L153.44 448.46L144.15 438.69L135.16 429.04L126.49 419.51L118.12 410.08L110.06 400.77L102.31 391.56L94.85 382.45L87.7 373.43L80.84 364.51L74.28 355.67L68.01 346.91L62.03 338.24L56.34 329.63L50.94 321.1L45.83 312.63L40.99 304.22L36.44 295.87L32.17 287.58L28.17 279.33L24.45 271.13L21 262.96L17.82 254.84L14.91 246.74L12.27 238.68L9.89 230.64L7.77 222.61L5.91 214.6L4.31 206.61L2.96 198.62L1.87 190.63L1.03 182.64L0.44 174.65L0.1 166.64L0 158.63L0.15 150.59L0.54 142.53L1.16 134.45L2.03 126.33L2.14 125.31L2.27 124.3L2.4 123.28L2.54 122.27L2.69 121.25L2.84 120.24L3 119.22L3.16 118.2L3.34 117.19L3.52 116.17L3.7 115.15L3.9 114.14L4.1 113.12L4.31 112.1L4.52 111.08L4.75 110.06L4.97 109.04L5.21 108.02L5.46 106.99L5.71 105.97L5.96 104.94L6.23 103.92L6.5 102.89L6.78 101.86L7.07 100.83L7.36 99.8L7.67 98.76L7.98 97.73L8.29 96.69L8.62 95.65L8.95 94.61L9.29 93.57L9.63 92.53L9.99 91.48L10.35 90.43L10.72 89.38L11.09 88.33L11.48 87.27L11.87 86.22L12.27 85.16L12.71 84.04L13.16 82.93L13.61 81.83L14.07 80.73L14.54 79.64L15.02 78.54L15.51 77.46L16 76.38L16.5 75.3L17 74.23L17.51 73.16L18.03 72.1L18.56 71.04L19.09 69.99L19.63 68.94L20.18 67.9L20.73 66.86L21.29 65.83L21.86 64.8L22.44 63.78L23.02 62.76L23.6 61.75L24.2 60.75L24.8 59.75L25.4 58.75L26.02 57.77L26.64 56.78L27.26 55.81L27.9 54.84L28.54 53.88L29.18 52.92L29.83 51.97L30.49 51.02L31.16 50.08L31.83 49.15L32.5 48.22L33.19 47.3L33.88 46.39L34.57 45.49L35.27 44.59L62.44 15.75L63.99 14.25L65.59 12.83L67.23 11.49L68.91 10.21L70.63 9.02L72.38 7.89L74.16 6.84L75.97 5.87L77.81 4.97L79.67 4.14L81.55 3.39L83.46 2.72L85.38 2.12L87.32 1.59L89.27 1.14L91.23 0.77L93.19 0.47L95.17 0.24L97.15 0.09L99.12 0.02L101.1 0.02L103.07 0.09Z" id="au1T1YH1B"></path></defs><g><g><g><use xlink:href="#au1T1YH1B" opacity="1" fill="#1a9f29" fill-opacity="1"></use><g><use xlink:href="#au1T1YH1B" opacity="1" fill-opacity="0" stroke="#000000" stroke-width="1" stroke-opacity="0"></use></g></g></g></g></svg>