<?xml version="1.0" encoding="utf-8"?>
<!-- Generator: Adobe Illustrator 21.0.2, SVG Export Plug-In . SVG Version: 6.00 Build 0)  -->
<svg version="1.1" id="Слой_1" xmlns="http://www.w3.org/2000/svg" xmlns:xlink="http://www.w3.org/1999/xlink" x="0px" y="0px"
	 viewBox="0 0 48 48" enable-background="new 0 0 48 48" xml:space="preserve">
<circle fill="#1D9F38" cx="24" cy="24" r="24"/>
<path fill="#FFFFFF" d="M23.999,9.5C18.21,9.5,13.5,14.29,13.5,20.177c0,1.536,0.309,3.002,0.918,4.358
	c2.625,5.841,7.658,12.008,9.139,13.759C23.668,38.424,23.83,38.5,24,38.5c0.17,0,0.332-0.076,0.443-0.206
	c1.48-1.751,6.513-7.917,9.139-13.759c0.609-1.356,0.918-2.822,0.918-4.358C34.499,14.29,29.789,9.5,23.999,9.5L23.999,9.5z
	 M23.999,25.722c-3.007,0-5.454-2.488-5.454-5.546c0-3.058,2.447-5.546,5.454-5.546c3.007,0,5.454,2.488,5.454,5.546
	C29.454,23.234,27.007,25.722,23.999,25.722L23.999,25.722z M23.999,25.722"/>
</svg>
