<?xml version="1.0" standalone="no"?>
<!DOCTYPE svg PUBLIC "-//W3C//DTD SVG 20010904//EN"
 "http://www.w3.org/TR/2001/REC-SVG-20010904/DTD/svg10.dtd">
<svg version="1.0" xmlns="http://www.w3.org/2000/svg"
 width="700.000000pt" height="700.000000pt" viewBox="0 0 700.000000 700.000000"
 preserveAspectRatio="xMidYMid meet">
<metadata>
Created by potrace 1.11, written by Peter Selinger 2001-2013
</metadata>
<g transform="translate(0.000000,700.000000) scale(0.100000,-0.100000)"
fill="#000000" stroke="none">
<path d="M2402 6810 c0 -14 2 -19 5 -12 2 6 2 18 0 25 -3 6 -5 1 -5 -13z"/>
<path d="M2958 6760 c-3 -16 -1 -30 4 -30 4 0 8 14 8 30 0 17 -2 30 -4 30 -2
0 -6 -13 -8 -30z"/>
<path d="M2122 6760 c0 -14 2 -19 5 -12 2 6 2 18 0 25 -3 6 -5 1 -5 -13z"/>
<path d="M2402 6760 c0 -14 2 -19 5 -12 2 6 2 18 0 25 -3 6 -5 1 -5 -13z"/>
<path d="M2682 6760 c0 -14 2 -19 5 -12 2 6 2 18 0 25 -3 6 -5 1 -5 -13z"/>
<path d="M2136 6690 c3 -25 8 -58 11 -75 2 -16 6 -41 8 -55 2 -14 8 -54 14
-90 6 -36 13 -82 17 -104 3 -21 8 -48 10 -60 6 -31 35 -206 40 -241 2 -21 -6
-50 -24 -85 -23 -44 -39 -61 -80 -83 l-51 -28 10 33 c10 35 13 21 -90 343 -27
83 -68 212 -92 287 -23 76 -44 136 -46 134 -5 -4 9 -54 93 -336 25 -85 50
-168 54 -185 72 -260 72 -275 -1 -323 -57 -37 -59 -38 -59 -15 0 15 -155 364
-278 623 -24 52 -53 114 -63 138 -10 23 -21 42 -24 42 -3 0 1 -15 8 -32 8 -18
27 -62 42 -98 15 -36 33 -78 40 -95 21 -45 109 -251 181 -422 35 -83 64 -162
64 -176 0 -15 -9 -31 -25 -41 -81 -52 -69 -54 -111 16 -119 198 -448 725 -457
733 -6 6 -4 -1 5 -15 20 -34 91 -156 115 -200 11 -19 35 -62 53 -95 18 -33 78
-139 133 -235 55 -96 113 -198 129 -227 l29 -51 -47 -38 -46 -38 -47 50 c-25
27 -77 90 -116 139 -148 190 -416 525 -420 525 -2 0 39 -57 91 -127 52 -71
102 -137 110 -148 7 -11 62 -85 122 -165 59 -80 133 -182 164 -226 l57 -82
-32 -28 c-69 -62 -48 -72 -244 121 -368 365 -536 529 -497 485 36 -40 81 -89
203 -220 69 -74 280 -297 358 -379 46 -47 83 -88 83 -91 0 -3 -19 -25 -43 -48
l-43 -42 -79 60 c-44 34 -87 66 -95 73 -8 7 -51 39 -95 72 -44 33 -82 62 -85
65 -3 4 -61 49 -130 100 -69 52 -127 97 -130 100 -3 3 -30 25 -60 49 -30 25
-63 51 -72 59 -10 8 -18 13 -18 10 0 -3 46 -43 101 -89 56 -46 107 -89 113
-94 6 -6 47 -40 91 -75 44 -36 85 -69 91 -75 6 -5 71 -59 144 -120 74 -60 149
-123 167 -140 l32 -30 -44 -48 -44 -48 -148 89 c-81 50 -164 99 -183 110 -19
10 -134 79 -255 151 -121 73 -213 126 -205 118 8 -8 123 -83 255 -167 370
-235 505 -324 505 -334 0 -7 -44 -68 -74 -101 -6 -7 -33 1 -80 26 -39 21 -168
80 -286 132 -118 52 -264 118 -324 146 -60 28 -111 50 -112 48 -2 -2 172 -90
387 -196 278 -137 388 -196 382 -204 -8 -10 -64 -96 -69 -105 -2 -3 -160 45
-384 116 -232 74 -432 133 -436 129 -2 -2 26 -13 63 -25 61 -18 141 -46 443
-154 47 -16 131 -46 188 -65 l102 -35 -35 -61 c-19 -34 -41 -63 -49 -65 -9 -2
-65 6 -126 18 -60 12 -122 23 -137 26 -16 3 -111 20 -213 39 -203 37 -288 50
-280 42 3 -3 19 -7 35 -10 17 -3 64 -13 105 -22 116 -25 103 -22 280 -60 69
-15 134 -29 145 -31 11 -3 31 -7 45 -10 14 -3 32 -7 40 -9 8 -2 31 -7 50 -10
19 -3 36 -8 39 -10 2 -3 -11 -36 -30 -75 l-33 -70 -91 5 c-137 8 -236 13 -395
20 -80 4 -148 9 -152 11 -4 2 -9 1 -12 -4 -3 -5 0 -9 7 -9 47 -2 239 -18 327
-27 25 -3 79 -8 120 -11 100 -8 174 -15 177 -19 3 -3 -57 -149 -66 -158 -8 -9
-126 -18 -344 -28 -31 -2 -57 -6 -57 -10 0 -4 88 -5 196 -3 189 5 197 4 190
-14 -4 -10 -17 -47 -28 -83 -11 -36 -24 -70 -29 -76 -11 -13 -64 -25 -264 -58
-17 -3 -114 -21 -220 -41 -16 -3 -46 -9 -65 -14 -46 -12 -7 -13 45 -2 22 5 63
12 90 15 28 3 61 8 75 11 14 2 90 13 169 25 79 11 147 23 152 26 13 8 12 -3
-12 -108 -12 -51 -26 -98 -33 -104 -9 -10 -92 -38 -146 -49 -8 -2 -64 -19
-125 -39 -60 -19 -129 -40 -153 -47 -23 -7 -40 -14 -38 -16 3 -3 35 5 131 31
6 2 24 6 40 11 17 4 83 23 148 41 142 41 149 41 142 12 -7 -35 -14 -77 -21
-138 -3 -31 -13 -62 -22 -72 -10 -9 -60 -35 -112 -58 -134 -60 -138 -71 -5
-15 61 25 114 47 119 48 9 2 9 -78 0 -168 -7 -60 -7 -44 1 -187 4 -95 3 -124
-10 -147 -19 -38 -19 -55 0 -21 8 14 15 21 15 15 1 -5 3 -19 5 -30 2 -11 7
-42 10 -70 3 -27 9 -75 14 -105 6 -39 5 -65 -5 -92 -15 -44 -9 -52 8 -10 10
24 12 25 15 7 16 -80 46 -212 51 -220 4 -5 7 -15 8 -21 1 -6 9 -37 18 -68 9
-31 14 -62 10 -68 -4 -6 -3 -8 2 -5 6 3 25 -36 43 -86 19 -51 67 -159 107
-242 149 -305 324 -549 563 -785 421 -416 911 -675 1497 -789 55 -11 122 -22
149 -25 28 -3 77 -9 110 -13 81 -10 472 -10 565 0 666 72 1262 358 1735 832
317 316 541 673 684 1089 40 114 104 360 116 441 3 22 8 54 10 70 16 96 29
282 29 410 0 103 -11 315 -18 350 -2 11 -7 45 -12 75 -4 30 -8 57 -9 60 0 3
-4 28 -9 55 -19 125 -85 355 -150 520 -252 648 -749 1198 -1368 1515 -80 41
-145 76 -144 78 4 4 229 -76 304 -108 34 -14 59 -30 55 -35 -5 -4 -3 -5 4 -1
7 4 45 -10 85 -30 706 -354 1240 -972 1479 -1709 22 -65 64 -222 74 -270 52
-261 64 -394 59 -660 -3 -212 -5 -231 -25 -363 -22 -151 -42 -245 -74 -357
-63 -217 -103 -318 -201 -515 -151 -299 -325 -537 -568 -774 -258 -251 -610
-482 -910 -597 -28 -11 -60 -24 -71 -28 -85 -39 -389 -123 -489 -136 -15 -3
-35 -7 -45 -9 -21 -7 -120 -19 -256 -31 -127 -12 -502 -4 -525 10 -6 3 -10 1
-10 -4 0 -6 8 -11 18 -12 9 0 26 -2 37 -4 11 -3 45 -7 75 -11 30 -3 64 -8 75
-10 32 -7 253 -18 340 -18 526 3 1058 154 1490 425 461 288 820 681 1059 1159
156 312 241 599 291 975 21 157 10 572 -19 745 -25 150 -33 189 -62 296 -78
294 -207 584 -371 834 -128 194 -196 279 -363 450 -340 348 -761 605 -1222
744 -148 44 -264 70 -279 60 -8 -4 -9 -3 -5 4 4 8 0 12 -11 13 -10 0 11 9 45
20 86 27 74 33 -14 7 l-71 -20 -149 50 c-82 28 -158 52 -169 55 -14 3 27 27
125 75 80 39 142 72 139 72 -3 0 -32 -11 -65 -24 -55 -21 -93 -38 -202 -88
l-43 -20 -129 26 c-70 14 -138 26 -149 26 -12 0 -21 3 -21 8 0 8 219 147 278
176 17 9 32 19 32 22 0 7 -172 -84 -277 -147 -88 -53 -72 -51 -213 -34 -19 2
-57 4 -83 4 -54 1 -55 -2 28 67 41 33 150 112 251 182 11 7 -3 1 -31 -14 -61
-33 -144 -88 -252 -168 l-83 -60 -114 -3 -114 -3 37 37 c104 104 198 186 264
231 26 18 47 35 47 38 0 15 -202 -137 -302 -228 -44 -40 -88 -76 -97 -79 -9
-4 -49 -9 -90 -13 -41 -4 -78 -9 -83 -12 -13 -8 -9 16 5 30 6 7 37 41 67 76
73 85 145 155 198 191 23 17 42 32 42 35 0 7 -51 -29 -120 -84 -54 -43 -173
-156 -236 -224 -27 -28 -43 -35 -104 -46 -40 -7 -75 -11 -76 -9 -9 9 106 158
174 227 79 79 102 108 102 125 0 5 -8 -3 -18 -20 -10 -16 -52 -59 -94 -95 -41
-36 -108 -108 -149 -161 l-74 -96 -66 -17 c-37 -9 -70 -16 -74 -16 -13 0 62
121 103 164 50 54 75 97 90 156 17 70 43 242 37 248 -3 3 -5 1 -5 -4 0 -31
-54 -261 -69 -296 -10 -24 -42 -68 -70 -99 -28 -31 -69 -84 -92 -118 -22 -33
-46 -64 -52 -68 -25 -16 -112 -40 -115 -32 -5 13 77 157 94 167 17 9 20 42 29
257 7 160 1 195 -9 58 -7 -100 -18 -213 -22 -233 -1 -8 -3 -27 -3 -42 -1 -16
-15 -44 -34 -65 -36 -42 -77 -102 -99 -147 -11 -20 -32 -36 -72 -52 -66 -27
-65 -30 -17 77 24 53 27 70 25 147 -2 48 -5 107 -8 132 -4 40 -16 201 -20 287
-1 18 -5 35 -8 38 -3 4 -4 -13 -3 -37 9 -120 18 -343 18 -422 -1 -85 -3 -93
-44 -176 -39 -78 -49 -90 -93 -113 -27 -15 -52 -24 -55 -22 -2 3 5 28 16 56
l22 50 -65 327 c-63 318 -80 394 -68 302z m1344 -454 c-8 -7 -53 -46 -100 -86
-109 -94 -457 -442 -586 -585 -54 -60 -101 -112 -104 -115 -26 -25 -62 -71
-50 -65 14 8 110 84 120 95 7 9 250 211 291 242 18 14 77 60 129 101 52 40
158 119 235 173 121 86 183 127 346 228 16 10 33 16 36 12 4 -3 4 -7 2 -9 -2
-2 -40 -27 -84 -57 -144 -96 -500 -370 -540 -414 -5 -6 -50 -45 -100 -86 -49
-41 -92 -77 -95 -80 -3 -4 -59 -55 -125 -114 -136 -122 -177 -162 -155 -151 8
5 119 79 245 165 127 87 313 208 415 270 102 62 196 120 210 129 27 17 38 23
180 100 103 57 338 173 383 190 15 6 27 7 27 3 -1 -4 -44 -28 -98 -54 -222
-109 -695 -406 -982 -617 -264 -194 -330 -243 -330 -247 0 -6 40 15 185 96
488 273 1010 511 1408 644 157 53 153 43 -8 -18 -298 -114 -788 -350 -1058
-508 -26 -15 -50 -28 -52 -28 -3 0 -26 -13 -52 -29 -27 -15 -113 -67 -193
-114 -143 -84 -191 -116 -178 -117 3 0 78 30 165 66 297 125 464 189 788 305
213 77 619 196 765 225 14 3 50 12 81 20 31 7 65 14 75 14 14 -1 -134 -43
-221 -64 -138 -33 -775 -261 -950 -341 -16 -7 -70 -30 -120 -50 -94 -39 -136
-57 -220 -95 -27 -13 -102 -46 -165 -75 -124 -55 -188 -89 -155 -81 40 10 164
45 352 100 429 124 1024 258 1343 301 25 3 52 8 60 10 8 2 44 6 80 10 36 3 93
10 127 14 34 4 60 4 57 -1 -3 -4 -18 -8 -33 -8 -59 0 -393 -62 -622 -116 -364
-85 -677 -173 -1124 -316 -220 -70 -277 -93 -190 -77 25 5 67 11 93 14 26 4
55 8 64 11 24 7 243 44 348 59 14 2 75 11 135 20 61 9 130 18 155 21 25 2 72
9 105 14 33 5 92 12 130 15 39 3 79 8 90 10 11 2 52 6 90 10 39 3 84 8 100 10
17 2 71 7 120 10 50 4 113 8 140 11 95 7 490 17 485 11 -3 -2 -69 -8 -146 -11
-78 -4 -151 -8 -161 -10 -10 -2 -59 -7 -109 -11 -49 -4 -100 -8 -114 -10 -14
-2 -65 -9 -115 -15 -168 -20 -180 -21 -205 -25 -186 -28 -321 -48 -395 -61
-49 -8 -103 -17 -120 -20 -16 -3 -75 -13 -130 -24 -55 -10 -113 -21 -130 -24
-24 -4 -206 -42 -300 -62 -93 -19 -125 -28 -125 -35 0 -5 6 -7 13 -4 11 3 104
9 362 20 61 3 157 7 215 10 134 6 921 7 1020 0 41 -2 118 -7 170 -9 126 -7
274 -18 278 -21 1 -1 -186 -2 -415 -1 -359 0 -627 -6 -828 -19 -27 -2 -95 -6
-150 -10 -136 -8 -220 -15 -285 -21 -30 -2 -84 -7 -120 -10 -180 -14 -260 -24
-260 -35 0 -4 8 -7 18 -7 16 1 107 -5 282 -17 41 -3 109 -8 150 -10 41 -3 102
-7 135 -10 33 -3 87 -8 120 -11 33 -2 80 -7 105 -9 25 -2 74 -7 110 -10 107
-10 153 -15 190 -20 19 -2 60 -7 90 -10 30 -3 123 -15 205 -26 158 -21 163
-21 265 -37 123 -20 145 -23 175 -27 16 -3 74 -14 130 -25 55 -11 116 -22 135
-25 54 -9 50 -17 -5 -10 -28 4 -52 8 -55 10 -3 2 -34 6 -70 10 -36 4 -68 9
-71 11 -6 4 -32 7 -149 19 -30 3 -66 8 -80 10 -40 5 -170 19 -280 30 -36 3
-81 8 -100 10 -19 2 -75 7 -125 10 -49 3 -110 8 -135 10 -25 2 -97 7 -160 11
-464 25 -898 37 -883 24 4 -4 91 -22 193 -40 170 -30 609 -118 775 -155 39 -9
81 -18 95 -21 58 -11 524 -127 625 -155 230 -64 465 -132 462 -135 -2 -2 -82
16 -178 41 -96 24 -185 46 -199 48 -14 3 -65 15 -115 27 -49 12 -99 23 -110
26 -76 15 -123 25 -145 29 -14 3 -34 7 -45 9 -115 24 -368 72 -485 92 -14 3
-70 13 -125 24 -55 11 -120 22 -145 25 -25 3 -56 8 -70 10 -97 16 -260 42
-315 50 -22 3 -65 10 -95 15 -30 5 -84 12 -120 15 l-65 5 75 -26 c41 -14 208
-67 370 -119 162 -51 412 -134 555 -183 276 -95 285 -99 440 -157 55 -21 116
-43 135 -50 248 -92 574 -225 567 -231 -2 -2 -75 22 -163 55 -377 139 -1186
396 -1649 524 -11 3 -69 19 -130 37 -122 35 -225 60 -225 55 0 -4 147 -73 490
-227 271 -123 1156 -559 1275 -628 17 -10 57 -32 90 -50 229 -124 249 -142 44
-39 -78 38 -169 83 -203 98 -33 16 -155 72 -271 126 -115 53 -228 106 -250
116 -303 139 -1193 514 -1201 506 -3 -2 138 -93 313 -202 175 -109 377 -235
448 -281 72 -45 171 -109 220 -140 260 -166 818 -534 825 -544 3 -3 26 -19 52
-34 27 -15 51 -32 54 -37 6 -10 -107 56 -158 92 -51 36 -759 459 -769 459 -5
0 -9 5 -9 10 0 6 -4 10 -10 10 -5 0 -56 28 -112 61 -118 71 -598 348 -673 389
-27 15 -74 41 -103 59 -29 17 -72 41 -95 52 l-42 21 30 -29 c17 -16 77 -67
135 -113 58 -47 191 -154 295 -238 105 -85 207 -168 227 -184 20 -16 46 -37
56 -46 11 -10 34 -28 52 -42 18 -14 38 -30 44 -35 6 -6 70 -58 141 -116 72
-57 141 -114 155 -126 14 -11 162 -134 330 -273 168 -139 310 -257 315 -263
17 -17 -73 49 -215 159 -74 57 -214 163 -310 236 -96 73 -177 135 -180 138 -4
4 -1021 766 -1120 839 l-35 26 39 -45 c37 -42 340 -357 742 -769 95 -97 213
-219 264 -271 50 -52 187 -192 303 -310 234 -237 311 -322 172 -189 -50 47
-126 119 -169 160 -44 41 -120 113 -170 160 -50 48 -104 99 -121 114 -16 15
-113 106 -214 203 -101 98 -209 201 -240 231 -31 29 -141 135 -245 235 -103
99 -211 203 -240 230 -28 26 -82 78 -120 115 -62 58 -67 62 -49 29 54 -93 938
-1243 1281 -1665 68 -84 121 -153 119 -153 -2 0 -42 43 -88 96 -46 54 -89 102
-95 108 -14 14 -137 158 -194 226 -25 30 -73 86 -106 125 -71 82 -535 640
-641 771 -215 266 -357 440 -365 449 -18 17 21 -53 185 -340 326 -569 750
-1264 968 -1588 22 -31 37 -57 35 -57 -4 0 -77 100 -161 220 -22 30 -69 98
-107 152 -76 108 -406 605 -482 725 -28 43 -78 121 -112 173 -34 52 -127 201
-206 330 -192 311 -210 340 -214 340 -5 0 25 -75 113 -285 264 -630 444 -1023
700 -1533 67 -133 120 -242 118 -242 -3 0 -52 86 -160 280 -23 41 -75 138
-115 215 -40 77 -76 145 -81 150 -16 22 -351 701 -432 875 -47 102 -99 214
-115 250 -17 36 -48 104 -70 153 -40 85 -60 114 -42 60 5 -16 48 -165 95 -333
47 -168 99 -345 115 -395 107 -337 176 -553 205 -635 18 -52 63 -180 99 -285
37 -104 71 -199 76 -210 19 -40 109 -279 106 -282 -7 -8 -192 433 -319 762
-114 294 -457 1303 -457 1343 0 7 -5 12 -11 12 -5 0 -8 -3 -6 -7 3 -5 7 -32
11 -61 7 -62 14 -108 26 -182 5 -30 12 -75 15 -100 4 -25 13 -83 21 -130 8
-47 19 -107 24 -135 5 -27 11 -66 15 -85 6 -35 41 -226 49 -266 2 -11 16 -81
31 -155 15 -74 29 -145 31 -159 3 -14 10 -43 16 -65 5 -22 12 -49 14 -60 2
-11 6 -31 9 -45 3 -14 7 -34 9 -45 3 -11 21 -87 41 -170 20 -82 38 -159 41
-170 2 -11 22 -85 43 -165 22 -80 38 -146 36 -148 -5 -6 -157 492 -180 588 -1
8 -17 69 -35 135 -17 66 -33 127 -35 135 -3 15 -59 252 -95 405 -21 87 -135
656 -145 720 -3 22 -12 67 -20 100 -13 56 -14 48 -9 -133 3 -106 7 -221 9
-255 2 -34 7 -123 10 -197 4 -74 8 -155 10 -180 2 -25 6 -88 10 -140 3 -52 8
-106 10 -120 2 -14 7 -61 10 -105 6 -79 8 -98 21 -205 3 -30 7 -68 9 -85 4
-51 17 -169 20 -185 2 -9 6 -40 10 -70 11 -94 12 -102 35 -244 22 -144 23
-200 0 -74 -18 104 -19 108 -24 126 -3 9 -8 33 -11 52 -4 19 -15 87 -26 150
-21 118 -23 131 -34 213 -4 27 -8 59 -11 70 -5 30 -61 467 -69 547 -4 36 -9
79 -10 95 -2 17 -6 59 -10 95 -3 36 -8 85 -10 110 -7 66 -17 188 -20 240 -2
25 -7 92 -11 150 -4 58 -8 124 -8 147 -1 22 -4 39 -7 37 -10 -6 -29 -215 -44
-479 -3 -49 -7 -115 -10 -145 -26 -350 -24 -1401 3 -1444 3 -5 1 -6 -5 -3 -6
4 -13 50 -17 103 -4 53 -9 112 -11 133 -36 334 -40 1122 -9 1736 6 110 2 146
-9 85 -3 -14 -16 -83 -31 -155 -14 -71 -28 -142 -31 -157 -3 -16 -7 -38 -9
-50 -12 -61 -66 -389 -71 -428 -3 -25 -12 -85 -20 -135 -8 -49 -17 -115 -20
-145 -3 -30 -8 -68 -11 -85 -3 -16 -6 -46 -8 -65 -7 -74 -19 -176 -22 -192 -1
-9 -6 -59 -9 -110 -4 -51 -8 -109 -11 -128 -2 -19 -7 -102 -10 -185 -4 -82 -9
-152 -12 -155 -5 -6 6 544 12 575 2 11 7 70 11 130 3 61 8 124 10 140 3 17 7
57 10 90 13 149 16 182 20 205 3 14 7 52 10 85 4 33 13 107 21 165 8 58 16
119 19 135 2 17 6 50 10 75 3 25 13 86 21 135 23 137 30 182 38 260 20 178
-293 -939 -351 -1255 -2 -14 -9 -45 -14 -70 -11 -47 -44 -235 -54 -305 -4 -22
-8 -47 -10 -55 -4 -14 -17 -118 -18 -147 0 -7 -4 -13 -9 -13 -5 0 -6 10 -4 23
3 12 8 56 12 97 3 41 7 82 9 91 1 8 6 41 9 71 4 31 9 66 11 79 3 13 7 42 10
64 3 22 7 51 9 65 3 14 7 43 11 64 3 21 7 48 10 60 2 12 7 37 9 56 7 48 60
307 85 410 11 47 22 97 25 110 8 42 85 349 117 470 17 63 37 138 44 167 7 28
16 56 20 62 3 6 1 11 -4 11 -6 0 -11 -5 -11 -11 0 -6 -7 -27 -16 -47 -9 -21
-20 -46 -24 -57 -5 -11 -22 -49 -38 -85 -165 -369 -442 -1154 -486 -1380 -15
-76 -40 -179 -43 -176 -3 2 5 53 17 113 82 414 245 943 460 1495 69 177 87
238 47 160 -7 -15 -44 -81 -82 -147 -76 -135 -305 -583 -353 -690 -17 -38 -45
-101 -62 -140 -52 -114 -156 -383 -186 -478 -39 -129 -39 -100 0 39 97 338
268 750 527 1269 66 132 109 227 95 210 -32 -37 -293 -427 -373 -555 -172
-276 -316 -547 -393 -737 -19 -46 -35 -81 -37 -79 -2 2 11 41 28 87 100 271
266 605 458 924 36 61 70 118 76 128 25 43 161 255 184 287 l25 34 -35 -27
c-20 -15 -52 -46 -71 -69 -20 -24 -47 -55 -60 -69 -52 -56 -301 -360 -370
-451 -130 -172 -241 -342 -308 -471 -52 -99 -49 -72 5 40 122 258 290 508 603
898 80 99 152 189 161 200 16 20 3 9 -119 -101 -125 -113 -377 -370 -473 -484
-54 -63 -129 -161 -167 -218 -39 -56 -70 -98 -70 -93 0 30 160 270 255 384 6
7 20 24 31 39 66 86 205 238 384 422 153 158 135 150 -115 -50 -214 -171 -398
-347 -501 -479 -57 -74 -54 -71 -48 -47 21 79 376 454 627 661 75 63 137 116
137 118 0 8 -111 -57 -230 -136 -174 -114 -315 -224 -412 -320 -96 -95 -120
-98 -35 -5 134 149 307 295 530 448 70 48 127 89 127 91 0 6 -66 -23 -155 -67
-161 -81 -372 -211 -435 -269 -14 -12 -37 -34 -52 -48 -16 -13 -28 -20 -28
-14 0 15 126 135 202 193 81 60 215 145 356 224 56 32 102 60 102 61 0 15
-288 -97 -405 -157 -89 -45 -126 -69 -167 -106 -40 -36 -35 -10 5 28 76 73
256 176 452 260 162 70 147 74 -60 19 -163 -44 -291 -96 -338 -137 -9 -8 -19
-13 -22 -10 -12 11 69 75 137 110 111 55 143 68 283 115 l130 43 -65 -5 c-36
-3 -78 -8 -95 -10 -125 -20 -157 -26 -195 -37 -31 -9 -91 -33 -112 -45 -4 -2
-5 3 -2 11 3 8 15 18 27 22 12 4 38 18 58 31 41 27 97 46 204 69 39 9 79 18
90 20 11 3 40 8 65 11 79 11 14 20 -120 18 -138 -2 -218 -12 -239 -29 -11 -9
-13 -8 -10 4 6 19 83 57 129 64 19 3 45 8 57 10 27 6 143 18 203 21 25 2 47 4
50 5 16 6 -142 30 -235 36 -60 4 -112 8 -114 11 -10 8 19 25 55 33 40 9 254 6
309 -5 22 -4 26 -3 15 5 -19 13 -254 90 -275 90 -20 0 -19 17 2 28 26 13 100
4 233 -27 46 -11 85 -19 87 -17 3 3 -218 131 -241 139 -8 3 -7 9 2 18 16 18
78 1 195 -53 49 -22 90 -38 93 -35 3 2 -42 44 -100 93 -77 66 -101 92 -94 102
17 20 31 15 129 -51 52 -35 102 -66 111 -70 14 -5 -67 111 -92 133 -3 3 -19
22 -35 43 -26 35 -27 39 -12 54 14 15 24 8 113 -81 53 -53 98 -96 100 -96 1 0
-27 57 -63 126 -65 124 -65 126 -46 145 19 19 19 19 43 -23 31 -58 122 -189
127 -185 2 2 -3 20 -12 40 -8 19 -28 82 -45 139 -29 100 -29 103 -11 122 18
18 19 17 40 -38 28 -75 93 -217 97 -213 2 2 -5 50 -16 108 -29 161 -32 217
-10 229 28 15 30 13 30 -22 0 -18 15 -89 34 -158 l34 -125 -2 182 c-1 160 1
184 16 200 10 9 20 15 22 12 2 -2 7 -47 10 -99 4 -53 8 -105 10 -116 2 -12 7
-45 11 -75 8 -62 15 -76 16 -33 0 16 2 52 4 79 17 225 31 302 55 315 27 14 31
13 26 -12 -13 -60 -20 -236 -16 -353 l2 -40 9 35 c4 19 10 49 13 65 39 233 77
370 107 386 23 12 23 5 0 -91 -12 -53 -18 -87 -27 -155 -3 -27 -8 -58 -9 -67
-2 -9 -6 -48 -10 -85 -5 -68 -5 -68 9 -28 7 22 30 96 50 165 65 222 116 340
147 340 11 0 7 -17 -22 -99 -16 -44 -74 -265 -104 -396 -12 -55 6 -18 66 132
104 261 210 455 235 430 2 -2 -14 -43 -36 -90 -66 -140 -206 -519 -181 -491 4
5 56 98 115 208 113 208 214 375 252 415 47 50 39 11 -18 -84 -67 -112 -268
-514 -268 -536 0 -8 51 63 113 156 205 309 372 529 409 539 12 3 23 4 25 3 2
-2 -48 -70 -77 -105 -50 -58 -360 -540 -360 -559 0 -3 -9 -18 -21 -35 -12 -16
-19 -31 -17 -33 2 -2 51 55 108 128 260 326 581 669 605 645 2 -2 -19 -28 -46
-58 -45 -49 -215 -244 -258 -295 -15 -19 -300 -397 -330 -439 -27 -37 8 -5
116 105 114 117 293 294 354 350 63 58 172 155 209 185 19 16 44 37 55 46 86
72 162 128 175 128 13 0 13 -2 0 -14z m1047 -182 c-3 -3 -12 -4 -19 -1 -8 3
-5 6 6 6 11 1 17 -2 13 -5z m473 -1120 c0 -8 -19 -13 -24 -6 -3 5 1 9 9 9 8 0
15 -2 15 -3z m20 -1064 c8 -5 11 -10 5 -10 -5 0 -17 5 -25 10 -8 5 -10 10 -5
10 6 0 17 -5 25 -10z m-3863 -1642 c-3 -8 -6 -5 -6 6 -1 11 2 17 5 13 3 -3 4
-12 1 -19z m250 -140 c-3 -7 -5 -2 -5 12 0 14 2 19 5 13 2 -7 2 -19 0 -25z
m280 -140 c-3 -8 -6 -5 -6 6 -1 11 2 17 5 13 3 -3 4 -12 1 -19z m640 -110 c-3
-7 -5 -2 -5 12 0 14 2 19 5 13 2 -7 2 -19 0 -25z m350 -10 c-3 -8 -6 -5 -6 6
-1 11 2 17 5 13 3 -3 4 -12 1 -19z"/>
<path d="M3206 6595 c-9 -26 -7 -32 5 -12 6 10 9 21 6 23 -2 3 -7 -2 -11 -11z"/>
<path d="M4580 6320 c-8 -5 -10 -10 -5 -10 6 0 17 5 25 10 8 5 11 10 5 10 -5
0 -17 -5 -25 -10z"/>
<path d="M4785 6110 c-16 -7 -17 -9 -3 -9 9 -1 20 4 23 9 7 11 7 11 -20 0z"/>
<path d="M387 5459 c7 -7 15 -10 18 -7 3 3 -2 9 -12 12 -14 6 -15 5 -6 -5z"/>
<path d="M267 5199 c7 -7 15 -10 18 -7 3 3 -2 9 -12 12 -14 6 -15 5 -6 -5z"/>
<path d="M190 4926 c0 -2 7 -7 16 -10 8 -3 12 -2 9 4 -6 10 -25 14 -25 6z"/>
<path d="M208 4633 c12 -2 32 -2 45 0 12 2 2 4 -23 4 -25 0 -35 -2 -22 -4z"/>
<path d="M368 4373 c-38 -2 -68 -7 -68 -11 0 -4 31 -6 70 -4 38 2 70 8 70 13
0 5 -1 8 -2 7 -2 -1 -33 -3 -70 -5z"/>
<path d="M235 4360 c-3 -5 -1 -10 4 -10 6 0 11 5 11 10 0 6 -2 10 -4 10 -3 0
-8 -4 -11 -10z"/>
<path d="M270 4359 c0 -5 5 -7 10 -4 6 3 10 8 10 11 0 2 -4 4 -10 4 -5 0 -10
-5 -10 -11z"/>
<path d="M148 4353 c7 -3 16 -2 19 1 4 3 -2 6 -13 5 -11 0 -14 -3 -6 -6z"/>
<path d="M218 3783 c7 -3 16 -2 19 1 4 3 -2 6 -13 5 -11 0 -14 -3 -6 -6z"/>
<path d="M634 3387 c-10 -13 -37 -36 -59 -50 -22 -15 -35 -27 -29 -27 17 0 92
57 104 80 14 27 8 25 -16 -3z"/>
<path d="M613 3028 c-23 -30 -24 -41 -2 -21 12 12 20 25 17 28 -3 3 -10 0 -15
-7z"/>
<path d="M559 2973 c-13 -16 -12 -17 4 -4 9 7 17 15 17 17 0 8 -8 3 -21 -13z"/>
<path d="M3558 403 c6 -2 18 -2 25 0 6 3 1 5 -13 5 -14 0 -19 -2 -12 -5z"/>
</g>
</svg>
