<?xml version="1.0" encoding="utf-8"?>
<!-- Generator: Adobe Illustrator 21.0.2, SVG Export Plug-In . SVG Version: 6.00 Build 0)  -->
<svg version="1.1" id="Слой_1" xmlns="http://www.w3.org/2000/svg" xmlns:xlink="http://www.w3.org/1999/xlink" x="0px" y="0px"
	 viewBox="0 0 72 72" enable-background="new 0 0 72 72" xml:space="preserve">
<circle fill="#1D9F38" cx="36" cy="36" r="36"/>
<path fill="#FFFFFF" d="M47.404,26.113c-3.994,0.297-8.128,1.914-12.638,1.603c-3.364-0.237-6.832-1.354-9.969-1.603
	c-2.131-0.168-5.378,0-7.021,0.146c-3.105,0.276-7.816,0.806-8.564,3.059c-0.879,2.647,1.22,3.545,1.685,4.658
	c0.673,1.617,0.598,3.289,1.123,4.657c0.489,1.266,1.125,2.655,1.966,3.788c3.026,4.083,11.671,4.484,15.585,1.165
	c1.238-1.052,2.526-3.262,3.369-5.241c0.593-1.392,1.258-5.532,3.088-5.532c1.404,0,1.595,1.301,1.967,2.621
	c1.034,3.673,2.755,7.089,5.194,8.734c3.819,2.579,10.584,2.39,13.62-0.292c1.829-1.614,3.08-4.455,3.792-6.843
	c0.281-0.947,0.18-2.152,0.563-3.057c0.572-1.358,1.957-1.608,1.826-3.788C62.738,26.074,52.366,25.745,47.404,26.113L47.404,26.113
	z M28.45,41.837c-2.741,2.374-8.533,2.746-11.513,0.585c-1.787-1.3-5.051-7.883-2.949-11.939c0.746-1.442,2.09-1.807,4.072-2.039
	c5.126-0.596,12.909,0.2,14.042,3.932C33.172,35.91,30.131,40.379,28.45,41.837L28.45,41.837z M58.497,34.995
	c-0.237,2.834-1.71,6.535-3.652,7.568c-4.255,2.271-10.074,1.161-12.638-2.327c-1.315-1.791-3.026-5.258-2.246-7.863
	c0.814-2.724,4.674-3.612,8.423-3.932C54.994,27.882,59.08,28.069,58.497,34.995L58.497,34.995z M54.319,29.464
	c-0.093-0.212-0.339-0.304-0.543-0.207c-0.203,0.097-0.293,0.352-0.2,0.564l2.624,5.838c0.093,0.212,0.338,0.304,0.541,0.207
	c0.204-0.099,0.295-0.351,0.2-0.563L54.319,29.464z M52.956,30.877c-0.093-0.212-0.338-0.306-0.543-0.207
	c-0.202,0.098-0.293,0.351-0.199,0.563l1.804,4.428c0.094,0.211,0.339,0.304,0.543,0.207c0.202-0.099,0.293-0.351,0.198-0.563
	L52.956,30.877z M52.956,30.877"/>
</svg>
