<?xml version="1.0" encoding="utf-8"?>
<!-- Generator: Adobe Illustrator 21.0.2, SVG Export Plug-In . SVG Version: 6.00 Build 0)  -->
<svg version="1.1" id="Слой_1" xmlns="http://www.w3.org/2000/svg" xmlns:xlink="http://www.w3.org/1999/xlink" x="0px" y="0px"
	 viewBox="0 0 72 72" enable-background="new 0 0 72 72" xml:space="preserve">
<circle fill="#1D9F38" cx="36" cy="36" r="36"/>
<path fill="#FFFFFF" d="M38.602,43.69c0-1.311,0.148-2.342,0.443-3.092c0.295-0.75,0.917-1.497,1.866-2.239
	c1.742-1.153,3.192-2.583,4.351-4.289C46.42,32.363,47,30.506,47,28.5c0-3.081-0.991-5.517-2.974-7.31
	c-1.983-1.793-4.716-2.69-8.2-2.69c-3.235,0-5.859,0.806-7.873,2.417c-2.014,1.611-2.998,3.934-2.951,6.967l0.047,0.142h6.625
	c0.015-1.343,0.424-2.361,1.225-3.057c0.801-0.695,1.777-1.043,2.928-1.043c1.4,0,2.476,0.411,3.231,1.232
	c0.754,0.822,1.131,1.959,1.131,3.412c0,1.312-0.331,2.496-0.991,3.555c-0.661,1.059-1.544,2.046-2.648,2.962
	c-1.882,1.469-3.138,2.717-3.768,3.744c-0.63,1.027-0.953,2.646-0.968,4.858H38.602z M38.649,47.576H31.79V53.5h6.859V47.576z"/>
</svg>
