<?xml version="1.0" encoding="utf-8"?>
<!-- Generator: Adobe Illustrator 21.0.2, SVG Export Plug-In . SVG Version: 6.00 Build 0)  -->
<svg version="1.1" id="Слой_1" xmlns="http://www.w3.org/2000/svg" xmlns:xlink="http://www.w3.org/1999/xlink" x="0px" y="0px"
	 viewBox="0 0 32 32" enable-background="new 0 0 32 32" xml:space="preserve">
<g>
	<path d="M31.39,27.871l-4.612-4.603c-0.44-0.44-1.039-0.646-1.62-0.618l-2.219-2.22c3.779-4.996,3.395-12.142-1.157-16.698
		C16.804-1.246,8.726-1.246,3.749,3.742c-4.987,4.987-4.987,13.055-0.009,18.033c4.556,4.556,11.702,4.936,16.698,1.157l2.22,2.219
		c-0.028,0.581,0.178,1.18,0.618,1.62l4.603,4.603c0.824,0.824,2.168,0.824,2.992,0l0.51-0.51
		C32.214,30.039,32.214,28.705,31.39,27.871z M19.023,19.016c-3.456,3.456-9.07,3.465-12.526,0.009
		C3.042,15.57,3.042,9.965,6.507,6.499c3.456-3.456,9.07-3.465,12.526-0.009C22.489,9.946,22.475,15.551,19.023,19.016z"/>
	<path d="M16.233,11.426h-2.088V9.337c0-0.754-0.609-1.363-1.353-1.363h-0.014c-0.745,0-1.353,0.609-1.353,1.363v2.088H9.335
		c-0.754,0-1.363,0.609-1.363,1.353v0.009c0,0.745,0.609,1.353,1.363,1.353h2.088v2.088c0,0.754,0.609,1.363,1.353,1.363h0.009
		c0.745,0,1.353-0.609,1.353-1.363v-2.088h2.088c0.754,0,1.362-0.609,1.362-1.353v-0.009C17.6,12.035,16.991,11.426,16.233,11.426z"
		/>
</g>
</svg>
