<svg xmlns="http://www.w3.org/2000/svg" width="46" height="43.666"><defs><clipPath clipPathUnits="userSpaceOnUse" id="a"><path d="M0 149.794h157.801V0H0z"/></clipPath></defs><g clip-path="url(#a)" transform="matrix(.2915 0 0 -.2915 0 43.666)" fill-rule="evenodd"><path d="M66.69 98.726c18.552-3.156 38.029-7.89 50.404-12.097-12.505 3.682-32.11 7.626-50.791 10.256-.921 0-1.71.132-2.631.263.79-.263 1.58-.526 2.502-.921 18.032-5.39 37.121-12.228 49.238-17.751-12.377 4.866-31.728 11.046-49.89 16.042-.79.132-1.71.263-2.632.526.923-.394 1.713-.79 2.503-1.183 17.251-7.627 35.56-16.7 47.154-23.405-11.986 6.18-30.555 14.595-48.069 21.695-.79.263-1.58.527-2.501.92.79-.525 1.45-.92 2.24-1.446 16.076-9.861 33.471-21.038 44.543-28.795-11.465 7.363-29.12 17.75-45.59 27.086-.79.395-1.449.789-2.37 1.184a13.33 13.33 0 0 0 2.11-1.71c14.767-11.834 30.723-24.852 41.141-33.661-10.81 8.415-27.422 20.907-42.45 32.083-.66.526-1.45 1.052-2.11 1.578.528-.657 1.188-1.314 1.716-1.972C74.404 73.743 88.788 59.017 98.42 49.286c-10.026 9.336-25.065 23.668-38.523 36.686-.79.657-1.318 1.183-1.978 1.84.528-.79.925-1.578 1.454-2.235 11.361-15.121 23.91-31.426 32.624-41.945-9.24 10.256-22.444 26.035-34.198 40.76-.528.659-1.056 1.316-1.716 1.974.397-.79.926-1.578 1.323-2.367 9.262-16.567 19.973-34.056 27.508-45.232-8.19 11.045-19.559 28.139-29.214 44.18-.529.789-.925 1.446-1.454 2.236.266-.921.663-1.71.93-2.5 7.161-17.618 15.64-35.895 22.256-47.73-7.14 11.704-16.409 29.717-23.963 46.81-.398.92-.795 1.71-1.192 2.499.266-.92.401-1.841.666-2.63 4.93-18.277 11.307-37.211 16.477-49.44-5.827 12.097-12.86 30.9-18.315 48.783-.266.92-.532 1.709-.798 2.498.135-.92.138-1.71.273-2.63 2.695-18.803 6.838-37.87 10.694-50.36C56.76 42.973 51.96 62.04 48.74 80.449c-.135.92-.4 1.709-.535 2.63l.01-2.63c.591-18.934 2.367-37.87 5.04-50.361-3.2 12.623-5.764 31.558-6.88 50.098-.004.92-.139 1.84-.142 2.76l-.385-2.76c-1.644-18.671-1.842-37.212-.485-49.44-1.884 12.492-2.343 31.03-1.225 49.572l-.009 2.629c-.128-.79-.388-1.71-.517-2.498-3.749-18.41-5.792-36.028-5.619-47.731-.699 11.966.816 29.848 3.908 47.994.13.92.258 1.709.386 2.63-.26-.921-.652-1.71-.91-2.498-5.594-17.62-9.218-34.187-9.969-45.101.224 11.176 3.452 28.138 8.387 45.627.261.788.52 1.709.65 2.498-.26-.79-.784-1.578-1.044-2.367-7.306-16.568-12.38-31.952-13.792-41.814 1.016 10.256 5.695 25.904 12.342 42.603.26.789.652 1.578.913 2.367-.524-.658-.916-1.447-1.308-2.104C28.8 67.037 22.67 53.099 20.99 44.42c1.414 9.204 7.15 23.405 15.248 39.052.392.658.784 1.447 1.176 2.235l-1.572-1.972c-9.297-13.278-15.839-24.83-18.027-32.402l-.025.099c2.021 7.97 8.067 20.096 16.865 33.487.785 1.314.523.92 1.307 2.103-.916-1.051-.786-.79-1.835-1.71-8.979-10.086-15.418-18.77-18.117-24.84-.017.138-.035.276-.05.414 2.546 6.483 8.642 15.506 17.243 25.742l1.57 1.972c-.655-.525-1.179-1.052-1.703-1.578-5.899-5.26-10.615-10.124-13.888-14.332-1.553-2.04-2.76-3.743-3.658-5.326l-.009.429c.877 1.702 1.97 3.515 3.402 5.555 3.272 4.47 7.725 9.467 13.36 15.12.523.527 1.047 1.053 1.703 1.579-.656-.395-1.18-.79-1.837-1.184-6.164-4.602-10.752-8.678-13.895-12.228-1.035-1.126-1.879-2.19-2.535-3.2.015.19.026.383.042.574a23.42 23.42 0 0 0 2.36 3.283c3.141 3.813 7.597 8.153 13.497 12.886.656.526 1.18 1.052 1.705 1.446a11.813 11.813 0 0 1-1.838-.92c-6.166-3.813-10.757-7.1-13.508-9.993a21.147 21.147 0 0 1-1.618-1.835c.038.234.082.466.122.699.421.556.875 1.173 1.493 1.794 2.751 3.155 7.208 6.837 13.243 10.78.524.396 1.181.79 1.705 1.185-.656-.263-1.18-.526-1.838-.657-6.038-3.025-10.5-5.655-12.99-8.021-.262-.33-.525-.627-.754-.907.058.24.106.485.167.725a8 8 0 0 0 .716.839c2.49 2.63 6.818 5.654 12.724 8.81.656.394 1.181.657 1.837 1.052-.656-.263-1.182-.395-1.838-.526-6.042-2.104-10.11-4.076-12.077-6.05a3.01 3.01 0 0 0-.21-.191c.082.258.17.515.257.772.027.026.06.05.083.078 2.096 2.104 6.164 4.47 12.072 6.837.526.263 1.051.526 1.708.789-.526-.132-1.184-.132-1.709-.263-5.759-1.31-9.558-2.751-11.01-4.322.111.282.214.567.33.847 1.782 1.762 5.375 3.408 10.938 5.053v-.131c.525.262 1.05.394 1.707.657-.526-.131-1.05-.131-1.577-.131-2.76-.264-4.995-.658-6.703-1.052-.919-.263-1.576-.526-2.1-.79l-.788-.394c-.012-.011-.048-.016-.067-.026.116.245.247.48.367.723 1.45.248 1.691 1.043 2.98 1.539 1.707.526 3.94 1.05 6.7 1.577.526 0 1.051.132 1.577.263-.526 0-1.053.132-1.447.132-2.63.13-4.602 0-6.18-.132-.657-.131-1.314-.263-1.708-.394-.204-.102-.175-.281-.518-.296.146.263.297.52.446.78a.522.522 0 0 1 .333.173 6.856 6.856 0 0 0 1.97.657c1.576.395 3.548.658 6.177.79h1.578c-.526.13-.92.263-1.448.394-2.368.395-4.21.658-5.525.658-.657 0-1.052 0-1.446-.132-.025-.008-.074-.003-.112-.005.168.266.334.532.505.794.394.132.92.263 1.576.263 1.446.263 3.287.13 5.654-.132.526 0 1.053-.131 1.58-.131-.528.263-.923.394-1.318.526-2.106.789-3.818 1.315-4.87 1.578a4.258 4.258 0 0 1-1.088.128c.166.232.324.469.493.698.333.077.677.094 1.118.094 1.183-.131 2.894-.394 5.131-1.051.526-.132.921-.132 1.448-.264-.396.264-.79.526-1.186.658-1.845 1.183-3.294 1.84-4.216 2.367-.264.13-.395.13-.659.263-.074 0-.026-.08-.085-.06.201.253.395.512.6.76.043-.012.08-.023.14-.043.132 0 .395 0 .66-.131 1.051-.263 2.5-.79 4.475-1.841.396-.132.922-.263 1.317-.395-.395.263-.66.526-.923.789-1.715 1.447-2.902 2.499-3.693 3.156-.132 0 .132-.131-.263.13-.245.245.07.043-.09.219.198.223.396.446.597.666.138-.04.308-.124.411-.226a33.45 33.45 0 0 0 3.953-2.63c.395-.131.791-.394 1.186-.657-.264.394-.528.657-.792 1.052-1.453 1.709-2.378 3.024-3.038 3.813-.075.075-.113.189-.152.3.235.24.473.477.712.714l.227-.225c.66-.79 1.846-1.841 3.43-3.42l.923-.92c-.264.395-.397.789-.66 1.315-1.06 1.842-1.854 3.419-2.253 4.47-.098.196-.05.032-.128.254.264.244.534.484.802.723.036-.062.07-.124.113-.187.53-1.052 1.454-2.367 2.644-4.208.396-.394.661-.79.924-1.052-.133.395-.266.92-.53 1.316-.797 2.235-1.329 3.944-1.596 5.259-.015.072-.022.13-.034.197.283.237.57.469.857.702.03-.08.054-.161.095-.242.398-1.183.93-2.761 1.99-4.865l.661-1.315c-.002.526-.135 1.052-.268 1.578-.535 2.499-.805 4.47-.81 5.917v.243c.292.222.591.435.887.652.013-.083.013-.15.031-.237.137-1.446.538-3.42 1.335-5.786.133-.526.266-.92.4-1.446l-.007 1.709c-.272 2.762-.279 4.865-.022 6.575.012.17.034.323.061.468.281.192.572.37.857.558v-.5c.006-1.578.145-3.814.55-6.443 0-.526.134-.921.267-1.447-.002.526.127 1.052.125 1.71.122 2.892.376 5.259.764 7.232.067.238.135.45.202.673.301.184.613.35.918.529-.324-1.968-.45-4.605-.439-7.908.002-.526.135-1.052.137-1.71.13.658.26 1.315.39 1.84.537 3.705 1.223 6.686 2.022 8.973.333.179.675.347 1.013.52-.66-2.275-1.202-5.312-1.592-9.097.002-.526-.127-1.184-.125-1.841.261.657.39 1.315.651 1.972 1.082 4.134 2.222 7.5 3.418 10.118.361.168.724.333 1.09.494-1.083-2.668-2.105-6.148-3.062-10.48-.13-.527-.127-1.184-.257-1.841l.782 1.972c1.766 4.69 3.536 8.496 5.308 11.494.334.129.662.27 1 .395-1.552-3.077-3.137-7.052-4.86-11.89-.13-.657-.39-1.314-.52-1.971.392.657.653 1.314 1.045 1.972 2.705 5.236 5.243 9.62 7.62 12.99.332.102.671.189 1.005.286-2.22-3.412-4.611-7.936-7.177-13.54a15.23 15.23 0 0 1-.782-1.971c.391.657.783 1.315 1.307 1.972 3.752 5.895 7.19 10.724 10.41 14.505.392.088.777.19 1.173.27-3.183-3.855-6.49-8.936-10.134-15.17-.393-.657-.785-1.314-1.045-1.972.523.658.916 1.184 1.44 1.84 5.188 6.634 10.028 12.07 14.277 16.048.295.039.591.077.888.113-4.082-4.116-8.753-9.82-13.718-16.817-.524-.526-.916-1.184-1.308-1.841.524.526 1.18 1.052 1.703 1.709 6.852 7.268 13.328 13.22 18.84 17.362.257.009.514.014.772.02-5.293-4.293-11.552-10.526-18.294-18.171-.524-.657-1.047-1.315-1.572-1.84.656.525 1.312 1.05 1.967 1.577 9.011 7.863 17.468 14.173 24.391 18.247.215-.017.43-.033.644-.052-6.7-4.291-14.987-11-23.847-19.247-.657-.525-1.18-1.051-1.835-1.71.786.527 1.442.92 2.23 1.447 11.576 8.23 22.646 14.759 31.117 18.38.147-.031.291-.066.437-.098-8.224-3.888-19.019-10.726-30.498-19.465-.787-.526-1.444-1.052-2.099-1.578l2.363 1.184c14.785 8.394 28.997 14.702 38.943 17.292.046-.018.092-.032.137-.05-9.688-2.96-23.573-9.765-38.155-18.557-.787-.526-1.443-.921-2.23-1.447.788.263 1.575.658 2.495.92 16.805 7.364 33.223 12.624 44.131 14.2-10.643-1.971-26.796-7.888-43.468-15.646l-2.363-1.183c.92.263 1.708.526 2.497.657 17.862 5.523 35.47 9.205 47.038 9.73-11.435-1.052-28.777-5.391-46.508-11.308-.788-.263-1.575-.657-2.495-.92.92.13 1.84.263 2.63.395 18.394 3.418 36.93 5.259 49.16 4.733-12.099 0-30.498-2.5-48.76-6.443-.92-.263-1.709-.526-2.629-.658.92 0 1.71.132 2.63.132 18.8 1.184 37.864 1.052 50.363-.657-12.497 1.183-31.56.657-50.225-1.184-.92-.131-1.84-.263-2.629-.395.79-.13 1.71-.13 2.631-.262 18.807-.921 38.275-3.287 50.776-6.312-12.63 2.499-32.097 4.208-50.9 4.47h-2.763c.921-.13 1.711-.262 2.632-.525m46.171 25.634c1.15.265 2.27.508 3.323.703a81.544 81.544 0 0 1-3.506-.598 64.976 64.976 0 0 1-8.255 4.112c2.502.939 4.831 1.71 6.936 2.28-2.236-.5-4.723-1.214-7.392-2.1a64.689 64.689 0 0 1-7.633 2.546c3.482 1.824 6.64 3.256 9.356 4.218-2.897-.866-6.288-2.24-10.038-4.041a64.6 64.6 0 0 1-6.855 1.332c4.133 2.829 7.796 4.917 10.804 6.1-3.249-1.157-7.19-3.208-11.619-5.996-1.962.249-3.95.412-5.962.48 4.357 3.703 8.171 6.289 11.215 7.495-3.244-1.17-7.386-3.756-12.11-7.471-.453.01-.902.035-1.357.035a65.31 65.31 0 0 1-3.82-.122c4.312 4.488 8.054 7.4 10.925 8.406-3.149-1.026-7.207-3.967-11.892-8.48a65.201 65.201 0 0 1-4.41-.465c.403.5.806.99 1.207 1.455 1.688 2.12 3.237 3.675 4.787 4.946.846.566 1.41.989 2.115 1.413.705.283 1.405 2.544 2.106 4.099-.843-1.555-1.54-3.816-2.247-4.1-.847-.423-1.552-.846-2.256-1.412-1.692-1.271-3.382-2.826-5.354-4.804a76.985 76.985 0 0 1-1.533-1.771 65.065 65.065 0 0 1-3.752-.726 48.631 48.631 0 0 0 1.611 2.355c1.407 1.978 2.815 3.392 3.943 4.24 1.267.989 2.1 5.37 3.078 8.76-1.119-3.39-1.95-7.771-3.36-8.76-1.41-.99-2.82-2.262-4.368-4.24a48.698 48.698 0 0 1-1.942-2.595 64.29 64.29 0 0 1-3.39-.908 36.18 36.18 0 0 0 1.661 2.938c1.265 1.696 2.397 1.554 3.09 5.087.554 3.392 1.108 6.642 1.66 10.175l-2.083-10.175c-.695-3.391-1.966-3.533-3.233-5.23a35.871 35.871 0 0 1-2.07-3.084c-.994-.314-1.98-.65-2.953-1.011.487 1.137.985 2.137 1.495 2.966.14.424.422.707.703.989.14.283.565 0 .562.848.135 1.837.271 3.392.264 5.229.13 3.533.4 6.783.53 10.316-.27-3.533-.542-6.783-.812-10.316-.136-1.696-.27-3.392-.547-5.23.003-.847-.28-.706-.562-1.13-.282-.141-.563-.565-.844-.848-.637-.895-1.259-1.994-1.869-3.251a64.676 64.676 0 0 1-2.59-1.075c.375 1.129.78 2.072 1.214 2.772v.142c.702.989.123 5.087-.172 8.62-.153 3.533-.448 6.925-.742 10.316.152-3.391.305-6.783.46-10.316.153-3.533.733-7.773-.252-9.044-.533-.761-1.034-1.758-1.506-2.943a63.963 63.963 0 0 1-2.425-1.187c.246 1.05.558 1.882.97 2.434-1.153 6.5-2.732 13.425-4.028 20.35 1.155-6.925 2.167-13.567 3.322-20.491.145-.85-.28-.707-.42-.99-.141-.282-.281-.707-.421-.99-.08-.24-.16-.488-.238-.732-.807-.43-1.6-.88-2.386-1.342.02.185.046.36.086.52.14.283.139.565.279.849 0 .14-.286.988-.571 1.836-2.143 6.643-4.144 13.002-6.287 19.785 1.86-6.783 3.72-13.142 5.722-19.926.456-1.797.39-2.68.21-3.388a63.411 63.411 0 0 1-2.45-1.557c-.001.043-.004.1-.004.14.137.989.14.283-.145 1.13-.428.849-.713 1.555-1.14 2.403-2.848 6.36-5.696 12.436-8.686 18.796 2.708-6.501 5.273-12.578 8.122-19.078.286-.848.57-1.555.998-2.403.286-.848.286-1.13.146-1.272-.018-.072-.028-.146-.041-.218a66.07 66.07 0 0 1-2.111-1.507c-.192.49-1.45 2.269-2.236 3.704-3.695 5.935-7.25 11.729-10.944 17.664 3.414-6.076 6.825-11.87 10.239-18.088.743-1.232 1.917-3.106 2.207-3.848a66.05 66.05 0 0 1-2.154-1.724c-.266.646-.994 1.016-1.452 1.473-.568.707-.994 1.414-1.562 2.12-4.401 5.512-8.517 10.74-12.917 16.252a1267.102 1267.102 0 0 1 12.353-16.676l2.742-3.897a64.733 64.733 0 0 1-2.124-1.928 10436.01 10436.01 0 0 0-3.436 3.423c-4.963 4.946-9.785 9.61-14.748 14.556 4.823-5.087 9.362-10.034 14.184-15.122 1.207-1.202 2.285-2.284 3.358-3.472a63.71 63.71 0 0 1-2.01-2.052 82.967 82.967 0 0 0-3.741 2.84c-5.525 4.239-10.91 8.337-16.438 12.719 5.387-4.523 10.63-8.763 16.017-13.285 1.144-1.015 2.303-1.926 3.551-2.918a66.266 66.266 0 0 1-1.985-2.281c-1.218.793-2.49 1.52-3.677 2.232-6.089 3.533-11.754 7.066-17.843 10.599 5.95-3.816 11.473-7.35 17.421-11.165a57.346 57.346 0 0 1 3.562-2.324 64.998 64.998 0 0 1-2.002-2.614c-.315.215-.635.443-.978.557-.708.425-1.557.707-2.265 1.13-6.37 2.827-12.597 5.512-18.967 8.48 6.229-3.11 12.316-6.076 18.686-9.185.708-.283 1.416-.707 2.266-1.131.305-.102.574-.277.833-.453a64.678 64.678 0 0 1-1.787-2.652c-.84.267-1.85.628-2.713.844-6.65 2.12-13.157 4.098-19.806 6.076 6.65-2.26 12.875-4.38 19.526-6.783.823-.274 1.743-.613 2.523-.874a65.826 65.826 0 0 1-1.716-2.932l-1.642.273c-6.93 1.272-13.435 2.544-20.363 3.675a1324.894 1324.894 0 0 0 20.224-4.382c.466-.077.933-.161 1.4-.262a64.344 64.344 0 0 1-1.626-3.29c-.11.007-.212.01-.329.02-6.925.423-13.568.706-20.636 1.13 6.927-.565 13.572-1.272 20.64-1.837l.015-.002a63.996 63.996 0 0 1-1.572-3.814h-1.115c-.848-.141-1.696-.141-2.543-.282-1.695 0-3.391-.142-5.227-.283-3.392-.141-6.782-.424-10.314-.565 3.532 0 6.924.14 10.315.282 1.836 0 3.532 0 5.227.142h2.545c.278 0 .566 0 .846.003a63.894 63.894 0 0 1-1.3-4.08c-1.73-.58-4.299-.903-6.736-1.293-3.389-.707-6.637-1.272-10.167-1.98 3.53.566 6.78.99 10.31 1.556 1.695.282 3.39.565 5.085.706.51.086.936.185 1.308.296a63.896 63.896 0 0 1-1.15-4.946c-.514-.154-1.198-.272-1.694-.437-.705-.283-1.553-.424-2.4-.707a265.994 265.994 0 0 0-9.881-3.11c3.389.849 6.636 1.838 10.023 2.686.847.283 1.553.565 2.4.707.469.156 1.02.269 1.47.387a64.078 64.078 0 0 1-.745-5.168c-.298-.297-.723-.584-1.412-.872-3.103-1.413-6.207-2.827-9.452-4.24a276.656 276.656 0 0 0 9.596 3.957c.586.245.96.473 1.229.695a65.184 65.184 0 0 1-.26-5.006c-.08-.164-.175-.336-.246-.494-.7-1.695-4.229-3.391-7.19-5.228 1.551.848 2.962 1.696 4.513 2.544 1.553.847 2.257 1.554 2.679 2.26.064.145.158.297.233.444-.002-.272-.019-.541-.018-.814a64.59 64.59 0 0 1 .2-4.634c-.412-.963-.82-1.796-.955-2.627-.28-.848-1.407-1.837-2.816-2.967.705.565 1.41.989 2.114 1.554.705.565.562.848.702 1.272.281.707.56 1.555.981 2.402l.002.004c.172-2.137.445-4.244.817-6.318-.671-1.685-1.13-3.217-1.345-4.567.238 1.219.72 2.61 1.42 4.156a64.561 64.561 0 0 1 2.203-8.545 36.91 36.91 0 0 1-.772-3.101c.204.909.49 1.893.83 2.927a64.739 64.739 0 0 1 3.172-7.784c-.055-.312-.119-.635-.166-.937.055.284.13.59.193.886C32.281 18.677 54.497 3.723 80.222 3.723c35.753 0 64.763 29.112 64.638 64.866-.082 23.687-12.939 44.448-31.999 55.77" fill="#577372"/><path d="M102.133 129.038c28.887-6.562 50.608-32.425 50.716-63.239.125-35.754-28.886-64.866-64.64-64.866-3.222 0-6.386.244-9.482.696A65.123 65.123 0 0 1 93.16 0c35.754 0 64.765 29.111 64.64 64.866-.114 32.553-24.345 59.591-55.668 64.172" fill="#eaeaea"/></g></svg>