<svg xmlns="http://www.w3.org/2000/svg" viewBox="0 0 18 18"><path d="M17.636 14.237L14.85 11.45c-.555-.553-1.474-.536-2.048.039l-1.404 1.403-.277-.154c-.886-.491-2.1-1.164-3.376-2.442-1.28-1.28-1.954-2.495-2.447-3.382-.052-.094-.101-.184-.151-.27l.942-.941.463-.464c.576-.575.592-1.494.038-2.048L3.804.404C3.25-.149 2.331-.132 1.756.443l-.764.811a4.523 4.523 0 0 0-.647 1.141 4.729 4.729 0 0 0-.288 1.158c-.368 3.05 1.026 5.837 4.808 9.62 5.228 5.228 9.442 4.833 9.624 4.814a4.687 4.687 0 0 0 2.298-.936l.813-.764c.573-.576.59-1.495.036-2.05zm-.013-.011"/></svg>