<svg xmlns="http://www.w3.org/2000/svg" xmlns:xlink="http://www.w3.org/1999/xlink" viewBox="0 0 640 640" width="64" height="64"><defs><path d="M103.07.09l1.97.15 1.96.23 1.95.3 1.93.38 1.92.45 1.9.53 1.88.6 1.86.68 1.83.76 1.81.83 1.77.9 1.75.98 1.71 1.06 1.67 1.13 1.63 1.21 1.59 1.29 1.55 1.36 1.5 1.43 99.06 99.1 1.44 1.5 1.36 1.55 1.29 1.59 1.21 1.63 1.14 1.67 1.06 1.71.98 1.75.91 1.77.83 1.81.76 1.83.68 1.86.61 1.88.53 1.9.45 1.92.38 1.93.3 1.95.23 1.96.15 1.97.08 1.97v1.98l-.07 1.97-.15 1.98-.22 1.98-.3 1.96-.38 1.96-.45 1.95-.52 1.94-.6 1.92-.68 1.91-.75 1.88-.82 1.87-.9 1.83-.98 1.81-1.05 1.79-1.12 1.74-1.2 1.72-1.28 1.68-1.35 1.64-1.42 1.6-1.5 1.56-16.46 16.49-33.5 33.46.14.23.13.23.13.23.14.23.13.23.13.24.14.23.13.23.13.24.13.23.14.24.13.23.13.24.13.23.14.24.13.24.13.24.14.24.13.23.13.24.14.24.13.25.13.24.14.24.13.24.14.24.13.25.13.24.14.25.13.24.14.25.27.49.14.25.13.24.14.25.14.25.14.25.13.25.14.25 1.33 2.39 1.35 2.43 1.38 2.47 1.41 2.51 1.44 2.56 1.47 2.59 1.5 2.63 1.53 2.67 1.57 2.7 1.61 2.74 1.65 2.78 1.68 2.81 1.73 2.84 1.77 2.88 1.82 2.91 1.85 2.94 1.91 2.96 1.95 3 2.01 3.02 2.05 3.06 2.11 3.07 2.16 3.11 2.22 3.12 2.27 3.15 2.33 3.18 2.39 3.19 2.45 3.22 2.52 3.24 2.58 3.25 2.64 3.28 2.71 3.29 2.78 3.31 2.84 3.32 2.92 3.34 2.99 3.35 3.07 3.37 3.14 3.37 3.21 3.39 3.29 3.4 3.38 3.41 3.4 3.37 3.39 3.29 3.37 3.21 3.37 3.13 3.36 3.06 3.34 2.99 3.33 2.91 3.32 2.84 3.3 2.78 3.28 2.7 3.27 2.64 3.25 2.57 3.23 2.51 3.21 2.45 3.19 2.39 3.17 2.33 3.14 2.26 3.12 2.22 3.1 2.15 3.08 2.11 3.04 2.05 3.02 2 2.99 1.95 2.97 1.9 2.93 1.85 2.91 1.81 2.87 1.77 2.84 1.72 2.8 1.68 2.78 1.65 2.74 1.6 2.7 1.57 2.66 1.53 2.63 1.49 2.59 1.47 2.55 1.43 2.51 1.4 2.47 1.38 2.43 1.34 2.38 1.33.26.14.26.14.26.15.25.14.26.14.25.14.26.15.25.14.25.14.25.14.25.14.25.14.25.14.25.13.25.14.25.14.25.14.24.14.25.13.24.14.25.14.24.13.25.14.24.14.24.13.25.14.24.13.24.13.24.14.24.13.24.14.24.13.24.13.24.13.24.14.24.13.24.13.24.13.23.13.24.13 49.92-49.88 1.56-1.5 1.59-1.42 1.64-1.35 1.68-1.27 1.71-1.2 1.75-1.12 1.78-1.05 1.81-.97 1.83-.9 1.87-.83 1.88-.75 1.9-.67 1.92-.6 1.94-.53 1.95-.45 1.96-.38 1.97-.3 1.97-.22 1.98-.15 1.97-.08h1.98l1.97.08 1.97.15 1.96.23 1.95.3 1.93.38 1.92.45 1.91.53 1.88.6 1.86.68 1.83.75 1.81.83 1.78.91 1.74.98 1.71 1.06 1.68 1.13 1.63 1.21 1.6 1.28 1.55 1.36 1.5 1.44 99.06 99.09 1.44 1.51 1.36 1.55 1.29 1.59 1.21 1.64 1.13 1.67 1.06 1.71.99 1.75.9 1.78.84 1.8.75 1.84.68 1.86.61 1.88.53 1.9.45 1.92.38 1.94.3 1.95.23 1.96.15 1.97.08 1.97v1.98l-.07 1.98-.15 1.98-.22 1.97-.3 1.97-.37 1.96-.45 1.96-.52 1.93-.6 1.93-.67 1.9-.75 1.89-.82 1.86-.89 1.84-.98 1.82-1.04 1.78-1.12 1.75-1.19 1.72-1.27 1.68-1.34 1.64-1.42 1.6-1.49 1.56-28.91 27.17-.9.7-.9.69-.92.69-.92.68-.92.67-.93.67-.94.66-.95.66-.95.65-.96.64-.96.64-.97.63-.97.62-.98.62-.99.61-.99.61-1 .6-1 .59-1.01.58-1.01.58-1.02.58-1.02.56-1.03.56-1.04.55-1.04.54-1.04.54-1.05.53-1.05.53-1.06.51-1.06.51-1.07.51-1.07.49-1.07.49-1.08.48-1.08.47-1.09.47-1.09.46-1.09.45-1.1.44-1.11.44-1.02.39-1.03.39-1.03.38-1.03.38-1.02.36-1.03.36-1.02.36-1.03.34-1.02.34-1.03.33-1.02.33-1.02.31-1.03.31-1.02.31-1.03.29-1.02.29-1.02.28-1.03.28-1.03.27-1.02.26-1.03.25-1.03.25-1.03.24-1.03.24-1.03.22-1.03.23-1.03.21-1.03.21-1.04.2-1.04.19-1.03.19-1.04.18-1.04.17-1.05.17-1.04.16-1.05.15-1.05.15-1.05.14-1.05.14-1.06.13-.75.07-1.28.1-1.8.12-2.3.1-2.8.07-3.29.02-3.77-.04-4.23-.14-4.69-.25-5.14-.37-5.58-.53-6-.69-6.42-.89-6.82-1.09-7.23-1.33-7.61-1.58-7.98-1.84-8.35-2.14-8.71-2.44-9.06-2.77-9.39-3.13-9.72-3.49-10.03-3.89-10.34-4.29-10.64-4.72-10.92-5.18-11.2-5.64-11.47-6.13-11.72-6.64-11.97-7.18-12.2-7.72-12.43-8.29-12.64-8.88-12.85-9.49-13.05-10.13-13.23-10.77-13.4-11.44-13.57-12.13-13.73-12.84-13.87-13.57-9.93-10.02-9.61-9.89-9.29-9.77-8.99-9.65-8.67-9.53-8.37-9.43-8.06-9.31-7.75-9.21-7.46-9.11-7.15-9.02-6.86-8.92-6.56-8.84-6.27-8.76-5.98-8.67-5.69-8.61-5.4-8.53-5.11-8.47-4.84-8.41-4.55-8.35-4.27-8.29-4-8.25-3.72-8.2-3.45-8.17-3.18-8.12-2.91-8.1-2.64-8.06-2.38-8.04-2.12-8.03-1.86-8.01-1.6-7.99-1.35-7.99-1.09-7.99-.84-7.99-.59-7.99-.34-8.01-.1-8.01.15-8.04.39-8.06.62-8.08.87-8.12.11-1.02.13-1.01.13-1.02.14-1.01.15-1.02.15-1.01.16-1.02.16-1.02.18-1.01.18-1.02.18-1.02.2-1.01.2-1.02.21-1.02.21-1.02.23-1.02.22-1.02.24-1.02.25-1.03.25-1.02.25-1.03.27-1.02.27-1.03.28-1.03.29-1.03.29-1.03.31-1.04.31-1.03.31-1.04.33-1.04.33-1.04.34-1.04.34-1.04.36-1.05.36-1.05.37-1.05.37-1.05.39-1.06.39-1.05.4-1.06.44-1.12.45-1.11.45-1.1.46-1.1.47-1.09.48-1.1.49-1.08.49-1.08.5-1.08.5-1.07.51-1.07.52-1.06.53-1.06.53-1.05.54-1.05.55-1.04.55-1.04.56-1.03.57-1.03.58-1.02.58-1.02.58-1.01.6-1 .6-1 .6-1 .62-.98.62-.99.62-.97.64-.97.64-.96.64-.96.65-.95.66-.95.67-.94.67-.93.67-.93.69-.92.69-.91.69-.9.7-.9 27.17-28.84 1.55-1.5 1.6-1.42 1.64-1.34 1.68-1.28 1.72-1.19 1.75-1.13 1.78-1.05 1.81-.97 1.84-.9 1.86-.83 1.88-.75 1.91-.67 1.92-.6 1.94-.53 1.95-.45 1.96-.37 1.96-.3 1.98-.23 1.98-.15 1.97-.07h1.98l1.97.07z" id="a"/></defs><use xlink:href="#a" fill="#1a9f29"/><use xlink:href="#a" fill-opacity="0" stroke="#000" stroke-opacity="0"/></svg>