<svg xmlns="http://www.w3.org/2000/svg" viewBox="0 0 64 64"><path fill-rule="evenodd" clip-rule="evenodd" fill="#1E9F38" d="M45.774 10.413c.466-.108.92-.206 1.348-.285-.451.065-.93.149-1.422.243a26.437 26.437 0 0 0-3.348-1.668 31.531 31.531 0 0 1 2.813-.925c-.907.203-1.915.493-2.998.852a26.26 26.26 0 0 0-3.096-1.033c1.412-.74 2.693-1.32 3.795-1.711-1.175.351-2.55.909-4.071 1.639a26.053 26.053 0 0 0-2.78-.54c1.676-1.147 3.162-1.994 4.382-2.474-1.318.47-2.917 1.301-4.712 2.432a26.389 26.389 0 0 0-2.418-.195c1.767-1.501 3.314-2.55 4.549-3.039-1.316.474-2.995 1.523-4.912 3.03-.184-.004-.366-.014-.55-.014-.521 0-1.037.019-1.55.049 1.749-1.82 3.267-3.001 4.431-3.409-1.278.415-2.925 1.608-4.825 3.438-.602.044-1.199.105-1.789.189.164-.203.327-.402.49-.59.685-.86 1.313-1.49 1.942-2.006.343-.229.572-.401.858-.573.286-.115.57-1.032.854-1.662-.342.63-.625 1.548-.911 1.662a4.96 4.96 0 0 0-.915.573c-.686.516-1.372 1.146-2.171 1.949-.205.229-.412.469-.622.718-.513.082-1.02.183-1.522.294a19.6 19.6 0 0 1 .653-.955c.57-.802 1.142-1.376 1.599-1.719.514-.401.852-2.178 1.249-3.554-.454 1.376-.791 3.152-1.363 3.554-.572.401-1.143.917-1.771 1.719-.258.317-.521.674-.788 1.052-.463.111-.922.233-1.375.368.225-.441.449-.839.674-1.191.513-.688.972-.63 1.254-2.063.224-1.376.449-2.694.673-4.127l-.845 4.127c-.282 1.376-.797 1.433-1.311 2.121-.28.37-.56.788-.84 1.251-.404.127-.803.264-1.198.41.198-.461.399-.867.606-1.203.057-.172.171-.287.285-.401.057-.115.229 0 .228-.344.055-.745.11-1.376.107-2.121.052-1.433.162-2.751.215-4.184-.11 1.433-.22 2.751-.329 4.184-.055.688-.11 1.376-.222 2.121.001.344-.114.287-.228.459-.115.057-.229.229-.343.344-.258.363-.51.809-.758 1.319a26.1 26.1 0 0 0-1.051.436c.152-.458.316-.841.492-1.124v-.057c.285-.401.05-2.063-.07-3.496-.062-1.433-.182-2.808-.301-4.184.062 1.376.124 2.751.187 4.184.062 1.433.298 3.152-.102 3.668-.217.308-.42.713-.611 1.193-.332.154-.659.314-.984.481.099-.426.226-.763.393-.987-.468-2.637-1.108-5.445-1.634-8.253.468 2.808.879 5.502 1.347 8.311.059.344-.114.287-.171.401-.057.115-.114.287-.171.401l-.097.297c-.327.174-.649.357-.967.544a1.6 1.6 0 0 1 .035-.211c.057-.115.057-.229.113-.344 0-.057-.116-.401-.232-.745-.869-2.694-1.681-5.273-2.55-8.024.755 2.751 1.509 5.33 2.321 8.082.185.729.159 1.087.085 1.374-.337.203-.668.414-.994.632l-.002-.057c.056-.401.057-.115-.059-.458-.173-.344-.289-.63-.462-.974a446.495 446.495 0 0 0-3.523-7.623 441.783 441.783 0 0 0 3.294 7.738c.116.344.231.63.405.974.116.344.116.458.059.516-.007.029-.011.059-.017.089-.289.199-.575.402-.856.611-.078-.199-.587-.92-.907-1.502-1.499-2.407-2.94-4.757-4.438-7.164 1.384 2.465 2.768 4.814 4.152 7.336.302.499.777 1.26.895 1.561-.296.228-.588.459-.874.699-.108-.262-.403-.412-.589-.598-.23-.287-.403-.573-.633-.86C12.494 9.156 10.825 7.035 9.04 4.8a508.935 508.935 0 0 0 5.01 6.763l1.112 1.581c-.293.255-.58.515-.862.782l-1.393-1.389c-2.013-2.006-3.968-3.897-5.981-5.903 1.956 2.063 3.797 4.069 5.753 6.133.489.488.926.927 1.362 1.408-.278.271-.549.549-.815.832a33.624 33.624 0 0 1-1.517-1.152c-2.241-1.719-4.425-3.382-6.667-5.158 2.184 1.834 4.311 3.554 6.495 5.388.464.412.935.781 1.441 1.184-.276.302-.543.611-.805.925-.494-.322-1.01-.617-1.491-.905-2.47-1.433-4.767-2.866-7.237-4.299 2.413 1.547 4.653 2.98 7.066 4.528.469.327.945.647 1.445.943-.28.346-.55.7-.812 1.06-.128-.087-.258-.18-.397-.226-.287-.172-.631-.287-.919-.459-2.583-1.146-5.109-2.235-7.692-3.439a897.702 897.702 0 0 0 7.579 3.725c.287.115.574.287.919.458.124.041.233.112.338.184-.25.352-.492.711-.725 1.075-.341-.108-.75-.254-1.1-.342a431.908 431.908 0 0 0-8.033-2.465c2.697.917 5.222 1.777 7.919 2.751.334.111.707.248 1.023.355-.242.39-.475.786-.696 1.189l-.666-.111c-2.81-.516-5.449-1.032-8.259-1.49 2.753.573 5.392 1.146 8.202 1.777.189.031.378.066.568.107-.233.437-.451.883-.659 1.334a3.368 3.368 0 0 1-.133-.008c-2.809-.172-5.503-.287-8.37-.459 2.809.229 5.504.516 8.371.745l.006.001a26.154 26.154 0 0 0-.637 1.547H7.33c-.344.057-.688.057-1.031.115-.688 0-1.375.057-2.12.115-1.371.055-2.746.17-4.179.227 1.433 0 2.808-.057 4.184-.115.745 0 1.433 0 2.12-.057h1.032l.343-.001a26.328 26.328 0 0 0-.527 1.655c-.702.235-1.744.366-2.732.524-1.375.287-2.692.516-4.124.802 1.432-.229 2.75-.401 4.182-.63.687-.115 1.375-.229 2.062-.287.207-.035.38-.075.53-.12-.18.659-.337 1.327-.466 2.006-.209.062-.486.11-.687.177-.286.115-.63.172-.973.287-1.374.459-2.634.86-4.008 1.261 1.374-.344 2.691-.745 4.066-1.089.344-.115.63-.229.973-.287.19-.063.413-.109.596-.157-.126.69-.231 1.388-.302 2.096-.121.12-.293.237-.572.354-1.259.573-2.518 1.146-3.834 1.719a111.318 111.318 0 0 1 3.892-1.605c.238-.099.39-.191.498-.282a26.7 26.7 0 0 0-.105 2.03c-.032.066-.071.136-.1.2-.284.688-1.715 1.376-2.916 2.121.629-.344 1.201-.688 1.83-1.032.629-.344.915-.63 1.086-.917.026-.059.065-.12.095-.18-.001.11-.008.22-.007.33.002.633.035 1.258.081 1.879-.167.393-.332.731-.387 1.068-.113.344-.57.745-1.142 1.204.286-.229.572-.401.858-.631.286-.229.228-.344.285-.516.114-.287.227-.63.398-.974l.001-.001c.069.867.18 1.721.331 2.563-.272.683-.458 1.305-.546 1.852.097-.494.293-1.059.576-1.686.221 1.185.52 2.342.893 3.466-.129.445-.236.867-.312 1.258.083-.369.198-.768.336-1.187a26.29 26.29 0 0 0 1.287 3.157c-.022.127-.048.258-.067.38.022-.115.052-.24.078-.359 4.288 8.774 13.298 14.838 23.731 14.838 14.501 0 26.267-11.807 26.216-26.308-.035-9.608-5.249-18.028-12.979-22.62zM27.048 20.809c7.524 1.28 15.423 3.2 20.442 4.906-5.071-1.493-13.023-3.093-20.599-4.16-.373 0-.693-.053-1.067-.107.32.107.641.213 1.015.373 7.314 2.186 15.056 4.959 19.97 7.199-5.02-1.973-12.868-4.48-20.234-6.506-.32-.053-.694-.107-1.067-.213.374.16.694.32 1.015.48 6.997 3.093 14.422 6.773 19.125 9.492-4.862-2.506-12.393-5.919-19.496-8.799-.32-.107-.641-.213-1.015-.373.321.213.588.373.909.587 6.52 4 13.575 8.533 18.066 11.679-4.65-2.986-11.811-7.199-18.49-10.986-.321-.16-.588-.32-.962-.48.321.213.588.427.856.693 5.99 4.8 12.461 10.079 16.686 13.652-4.385-3.413-11.122-8.479-17.217-13.012-.267-.213-.588-.427-.856-.64.214.267.482.533.696.8a1856.305 1856.305 0 0 0 15.093 15.465c-4.066-3.786-10.166-9.599-15.624-14.879-.321-.267-.535-.48-.802-.747.214.32.375.64.59.907 4.608 6.133 9.697 12.745 13.232 17.012-3.747-4.16-9.103-10.559-13.87-16.532a9.202 9.202 0 0 0-.696-.8c.161.32.376.64.537.96 3.756 6.719 8.101 13.812 11.156 18.345-3.322-4.48-7.932-11.412-11.848-17.918-.214-.32-.375-.587-.59-.907.108.373.269.693.377 1.013 2.905 7.146 6.344 14.559 9.027 19.358-2.896-4.746-6.655-12.052-9.719-18.985a17.676 17.676 0 0 0-.484-1.013c.108.373.163.747.27 1.067 1.999 7.413 4.586 15.092 6.683 20.052-2.364-4.906-5.217-12.532-7.428-19.785-.108-.373-.216-.693-.323-1.013.055.373.056.693.11 1.067 1.093 7.626 2.773 15.359 4.337 20.425-1.831-5.066-3.778-12.799-5.084-20.265-.055-.373-.162-.693-.217-1.067l.004 1.067c.24 7.679.96 15.359 2.045 20.425-1.298-5.12-2.338-12.799-2.791-20.318-.001-.373-.056-.747-.057-1.12l-.156 1.12c-.667 7.573-.747 15.092-.197 20.052-.764-5.066-.951-12.586-.497-20.105l-.004-1.066c-.052.32-.158.693-.21 1.013-1.52 7.466-2.349 14.612-2.279 19.358-.284-4.853.331-12.106 1.585-19.465.052-.373.104-.693.156-1.067-.105.373-.264.693-.37 1.013-2.268 7.146-3.738 13.865-4.042 18.292.091-4.533 1.4-11.412 3.402-18.505.106-.32.211-.693.263-1.013-.106.32-.318.64-.423.96-2.963 6.719-5.021 12.959-5.594 16.958.412-4.16 2.31-10.506 5.006-17.278.106-.32.264-.64.37-.96-.212.267-.371.587-.53.853-3.551 6.293-6.038 11.946-6.719 15.465.574-3.733 2.9-9.493 6.184-15.839.159-.267.318-.587.477-.907l-.637.8c-3.771 5.385-6.424 10.07-7.311 13.141l-.01-.04c.82-3.232 3.272-8.15 6.84-13.581.318-.533.212-.373.53-.853-.372.427-.319.32-.744.693-3.643 4.093-6.255 7.614-7.35 10.076l-.021-.168c1.033-2.629 3.506-6.289 6.994-10.44l.637-.8c-.266.213-.478.427-.691.64-2.392 2.133-4.305 4.106-5.633 5.813-.63.827-1.12 1.518-1.484 2.16l-.004-.174c.356-.69.799-1.426 1.38-2.253 1.327-1.813 3.133-3.84 5.418-6.133.213-.213.425-.427.691-.64-.266.16-.479.32-.745.48-2.5 1.867-4.361 3.52-5.635 4.96-.42.456-.762.888-1.028 1.298.006-.077.01-.155.017-.233.246-.415.555-.861.957-1.332 1.275-1.547 3.082-3.306 5.475-5.226.266-.213.479-.427.691-.587a4.889 4.889 0 0 0-.745.373c-2.501 1.546-4.363 2.88-5.479 4.053a8.631 8.631 0 0 0-.656.744c.015-.095.033-.189.05-.283.171-.226.355-.476.606-.728 1.115-1.28 2.923-2.773 5.371-4.373.213-.16.479-.32.692-.48-.266.107-.479.213-.746.267-2.449 1.227-4.258 2.293-5.268 3.253-.107.134-.213.254-.306.368.024-.098.043-.197.068-.294.084-.111.176-.225.291-.34 1.009-1.067 2.765-2.293 5.16-3.573.266-.16.479-.267.745-.427-.266.107-.479.16-.746.213-2.45.853-4.101 1.653-4.898 2.453a1.079 1.079 0 0 1-.086.078c.034-.105.069-.209.105-.313.011-.011.024-.021.034-.032.85-.853 2.5-1.813 4.896-2.773.213-.107.426-.213.692-.32-.213.053-.48.053-.693.107-2.336.531-3.876 1.116-4.466 1.753.045-.114.087-.23.134-.343.723-.715 2.18-1.382 4.436-2.049v.053c.213-.107.426-.16.692-.267-.213.053-.426.053-.64.053-1.12.107-2.026.267-2.718.427a4.844 4.844 0 0 0-.852.32l-.319.16c-.005.005-.019.007-.027.011.047-.099.1-.195.149-.293.588-.101.686-.423 1.208-.624.693-.213 1.598-.427 2.718-.64.213 0 .426-.053.64-.107-.213 0-.427-.053-.587-.053-1.067-.053-1.867 0-2.506.053a6.992 6.992 0 0 0-.693.16c-.083.041-.071.114-.21.12.059-.106.12-.211.181-.317a.208.208 0 0 0 .135-.07 2.81 2.81 0 0 1 .799-.267c.639-.16 1.439-.267 2.505-.32h.64c-.214-.053-.374-.107-.587-.16-.96-.16-1.708-.267-2.241-.267-.267 0-.427 0-.586.053-.01.003-.03.001-.046.002.068-.107.135-.216.205-.322.16-.053.373-.107.639-.107.586-.107 1.333-.053 2.293.053.213 0 .427.053.64.053a3.63 3.63 0 0 0-.534-.213 19.663 19.663 0 0 0-1.975-.64 1.723 1.723 0 0 0-.441-.052c.067-.094.132-.19.2-.283a1.99 1.99 0 0 1 .453-.038c.48.053 1.174.16 2.081.427.214.053.374.053.587.107-.16-.107-.321-.213-.481-.267-.748-.48-1.336-.747-1.71-.96-.107-.053-.16-.053-.267-.107-.03 0-.011.032-.035.024.082-.102.16-.207.243-.308a.691.691 0 0 1 .057.018c.053 0 .16 0 .267.053.427.107 1.014.32 1.816.747.16.053.374.107.534.16a2.341 2.341 0 0 1-.374-.32c-.695-.587-1.177-1.013-1.498-1.28-.053 0 .053.053-.107-.053-.099-.099.028-.017-.037-.088.081-.09.161-.181.243-.27.056.016.125.05.166.092.374.213.908.533 1.604 1.067.16.053.321.16.481.267-.107-.16-.214-.267-.321-.427-.589-.693-.964-1.226-1.232-1.546-.031-.031-.046-.077-.062-.122.095-.097.192-.193.289-.289l.091.091c.268.32.749.747 1.391 1.387l.375.373c-.107-.16-.161-.32-.269-.533-.429-.747-.751-1.387-.913-1.813-.04-.079-.021-.012-.052-.102.107-.099.216-.196.325-.294.015.025.029.05.046.076.215.427.59.96 1.073 1.707.16.16.268.32.375.427-.054-.16-.108-.373-.215-.533-.323-.907-.539-1.6-.647-2.133-.006-.029-.009-.053-.013-.08.115-.096.231-.19.348-.285.012.033.022.065.038.098.162.48.377 1.12.807 1.973l.269.533c-.001-.213-.055-.427-.109-.64-.217-1.013-.326-1.813-.328-2.4v-.099c.118-.09.24-.176.36-.264.005.034.006.06.013.096.055.587.218 1.387.541 2.346.054.213.108.373.162.587l-.002-.693c-.111-1.12-.113-1.973-.009-2.666.005-.07.014-.131.025-.19.114-.078.232-.15.348-.226v.203c.002.64.059 1.547.222 2.613.001.213.055.373.109.587-.001-.213.052-.427.051-.693.049-1.173.153-2.133.31-2.933.027-.097.055-.183.082-.273.122-.074.249-.142.372-.215-.131.798-.183 1.868-.178 3.208.001.213.055.427.056.693.052-.267.105-.533.157-.747.218-1.502.496-2.711.82-3.639.136-.073.274-.141.411-.211-.268.923-.487 2.154-.645 3.69.001.213-.052.48-.051.747.106-.267.158-.533.264-.8.439-1.677.901-3.042 1.386-4.104.147-.068.294-.135.442-.2-.439 1.082-.853 2.493-1.242 4.251-.053.213-.052.48-.104.747l.317-.8c.716-1.902 1.434-3.446 2.152-4.662.136-.052.268-.11.405-.16-.629 1.248-1.272 2.86-1.971 4.822-.052.267-.158.533-.211.8.159-.267.265-.533.424-.8 1.097-2.124 2.126-3.902 3.091-5.268.135-.041.272-.077.408-.116-.901 1.384-1.87 3.219-2.911 5.491a6.08 6.08 0 0 0-.317.8c.159-.267.318-.533.531-.8 1.522-2.391 2.916-4.349 4.222-5.883.159-.036.316-.077.476-.11-1.291 1.564-2.632 3.624-4.11 6.153-.159.267-.318.533-.424.8.212-.267.372-.48.584-.747 2.104-2.69 4.067-4.895 5.791-6.508.12-.016.24-.032.36-.046-1.656 1.669-3.55 3.982-5.563 6.821-.213.213-.372.48-.531.747.213-.213.478-.427.691-.693 2.779-2.948 5.406-5.362 7.641-7.042l.313-.008c-2.147 1.741-4.685 4.269-7.419 7.37a9.34 9.34 0 0 1-.637.747l.798-.64c3.654-3.189 7.084-5.748 9.892-7.4l.261.021c-2.718 1.741-6.078 4.461-9.672 7.806-.266.213-.478.427-.744.693.319-.213.585-.373.905-.587 4.695-3.338 9.185-5.986 12.62-7.454l.177.04c-3.335 1.577-7.713 4.35-12.369 7.894-.319.213-.585.427-.851.64l.958-.48c5.997-3.405 11.76-5.963 15.794-7.013l.056.02c-3.929 1.2-9.561 3.961-15.475 7.527-.319.213-.585.373-.905.587.32-.107.639-.267 1.012-.373 6.816-2.986 13.474-5.12 17.898-5.759-4.317.8-10.868 3.2-17.63 6.346l-.958.48c.373-.107.692-.213 1.012-.267 7.245-2.24 14.386-3.733 19.078-3.946-4.638.427-11.671 2.187-18.862 4.586-.32.107-.639.267-1.012.373a49.17 49.17 0 0 0 1.066-.16c7.461-1.387 14.978-2.133 19.938-1.92-4.906 0-12.369 1.013-19.776 2.613-.373.107-.693.213-1.066.267.373 0 .693-.053 1.066-.053 7.624-.48 15.357-.427 20.426.267-5.068-.48-12.8-.267-20.37.48a49.17 49.17 0 0 0-1.066.16c.32.053.693.053 1.067.107 7.627.373 15.523 1.333 20.594 2.56-5.123-1.013-13.018-1.707-20.644-1.813h-1.12c.37.047.69.1 1.064.207z"/><path fill-rule="evenodd" clip-rule="evenodd" fill="#1E9F38" d="M41.423 8.515c11.716 2.662 20.525 13.151 20.569 25.648.051 14.501-11.715 26.308-26.216 26.308a26.65 26.65 0 0 1-3.846-.282c1.884.427 3.841.661 5.854.661C52.285 60.85 64.05 49.043 64 34.542c-.046-13.203-9.874-24.169-22.577-26.027z"/></svg>