<svg xmlns="http://www.w3.org/2000/svg" viewBox="0 0 48 48"><circle fill="#1D9F38" cx="24" cy="24" r="24"/><path fill="#FFF" d="M32.887 26.499c-.567-.589-1.252-.903-1.977-.903-.72 0-1.41.309-2.001.897l-1.849 1.835c-.152-.082-.304-.157-.45-.233-.211-.105-.41-.204-.579-.309-1.732-1.095-3.306-2.522-4.815-4.368-.731-.92-1.223-1.695-1.58-2.481.48-.437.924-.891 1.357-1.328.164-.163.328-.332.491-.495 1.229-1.223 1.229-2.808 0-4.031l-1.597-1.59c-.181-.181-.368-.367-.544-.553-.351-.361-.72-.734-1.1-1.083-.567-.56-1.246-.857-1.959-.857-.714 0-1.404.297-1.989.856l-.012.012-1.989 1.998a4.247 4.247 0 0 0-1.269 2.708c-.14 1.701.363 3.285.749 4.322.948 2.545 2.364 4.904 4.476 7.432 2.562 3.046 5.646 5.451 9.168 7.146 1.346.635 3.142 1.386 5.148 1.514.121.006.25.012.367.012 1.351 0 2.486-.483 3.376-1.445.006-.012.017-.017.024-.029.304-.367.655-.699 1.024-1.054.251-.239.509-.489.761-.751.579-.6.883-1.299.883-2.015 0-.722-.31-1.415-.901-1.998l-3.213-3.209z"/></svg>