<svg xmlns="http://www.w3.org/2000/svg" viewBox="0 0 48 48"><circle fill="#1D9F38" cx="24" cy="24" r="24"/><path fill="#FFF" d="M24 12c-6.627 0-12 5.373-12 12s5.373 12 12 12 12-5.373 12-12c0-6.628-5.373-12-12-12zm1.299 12.456a.658.658 0 0 1-.002.048c-.002.048-.008.089-.012.121l-.002.015c-.003.024-.007.059-.016.101-.01.044-.022.08-.03.104l-.007.02a.948.948 0 0 1-.035.1l-.012.031-.007.015c-.028.059-.06.116-.097.171l-.018.025c-.036.05-.076.099-.124.149l-.007.007a1.328 1.328 0 0 1-.17.145l-.047.033a1.289 1.289 0 0 1-.98.185l-.007-.002a.611.611 0 0 1-.071-.021 1.323 1.323 0 0 1-.199-.069l-.008-.003-4.601-2.171a1.287 1.287 0 0 1-.668-.736 1.301 1.301 0 0 1 1.777-1.614l2.749 1.296v-6.424a1.3 1.3 0 0 1 1.299-1.299 1.3 1.3 0 0 1 1.299 1.299v8.474z"/></svg>