<svg xmlns="http://www.w3.org/2000/svg" viewBox="0 0 48 48"><circle fill="#1D9F38" cx="24" cy="24" r="24"/><path fill="#FFF" d="M33.826 14H14.179C12.425 14 11 15.441 11 17.214v13.573C11 32.559 12.425 34 14.179 34H33.82c1.754 0 3.18-1.441 3.18-3.214V17.219C37.005 15.446 35.58 14 33.826 14zm.927 17.67a.79.79 0 0 1-1.127.03l-7.091-6.809-1.988 1.801a.786.786 0 0 1-1.062.006l-1.935-1.747-7.132 6.744a.794.794 0 0 1-1.127-.041.815.815 0 0 1 .035-1.139l7.026-6.648-7.055-6.374a.81.81 0 0 1-.065-1.139.79.79 0 0 1 1.127-.066l7.633 6.905c.047.036.088.072.13.113 0 .006.006.012.012.018l1.876 1.693 9.616-8.723a.795.795 0 0 1 1.127.06.816.816 0 0 1-.059 1.139l-6.973 6.32 7.002 6.72a.811.811 0 0 1 .03 1.137z"/></svg>