<svg xmlns="http://www.w3.org/2000/svg" viewBox="0 0 48 48"><circle fill="#1D9F38" cx="24" cy="24" r="24"/><path fill="#FFF" d="M23.999 9.5C18.21 9.5 13.5 14.29 13.5 20.177c0 1.536.309 3.002.918 4.358 2.625 5.841 7.658 12.008 9.139 13.759.111.13.273.206.443.206.17 0 .332-.076.443-.206 1.48-1.751 6.513-7.917 9.139-13.759.609-1.356.918-2.822.918-4.358C34.499 14.29 29.789 9.5 23.999 9.5zm0 16.222c-3.007 0-5.454-2.488-5.454-5.546 0-3.058 2.447-5.546 5.454-5.546 3.007 0 5.454 2.488 5.454 5.546.001 3.058-2.446 5.546-5.454 5.546zm0 0"/></svg>