<?xml version="1.0" encoding="utf-8"?>
<!-- Generator: Adobe Illustrator 21.0.2, SVG Export Plug-In . SVG Version: 6.00 Build 0)  -->
<svg version="1.1" id="Слой_1" xmlns="http://www.w3.org/2000/svg" xmlns:xlink="http://www.w3.org/1999/xlink" x="0px" y="0px"
	 viewBox="0 0 48 48" enable-background="new 0 0 48 48" xml:space="preserve">
<circle fill="#1D9F38" cx="24" cy="24" r="24"/>
<path fill="#FFFFFF" d="M32.887,26.499c-0.567-0.589-1.252-0.903-1.977-0.903c-0.72,0-1.41,0.309-2.001,0.897l-1.849,1.835
	c-0.152-0.082-0.304-0.157-0.45-0.233c-0.211-0.105-0.41-0.204-0.579-0.309c-1.732-1.095-3.306-2.522-4.815-4.368
	c-0.731-0.92-1.223-1.695-1.58-2.481c0.48-0.437,0.924-0.891,1.357-1.328c0.164-0.163,0.328-0.332,0.491-0.495
	c1.229-1.223,1.229-2.808,0-4.031l-1.597-1.59c-0.181-0.181-0.368-0.367-0.544-0.553c-0.351-0.361-0.72-0.734-1.1-1.083
	C17.676,11.297,16.997,11,16.284,11c-0.714,0-1.404,0.297-1.989,0.856l-0.012,0.012l-1.989,1.998
	c-0.749,0.745-1.176,1.654-1.269,2.708c-0.14,1.701,0.363,3.285,0.749,4.322c0.948,2.545,2.364,4.904,4.476,7.432
	c2.562,3.046,5.646,5.451,9.168,7.146c1.346,0.635,3.142,1.386,5.148,1.514C30.687,36.994,30.816,37,30.933,37
	c1.351,0,2.486-0.483,3.376-1.445c0.006-0.012,0.017-0.017,0.024-0.029c0.304-0.367,0.655-0.699,1.024-1.054
	c0.251-0.239,0.509-0.489,0.761-0.751c0.579-0.6,0.883-1.299,0.883-2.015c0-0.722-0.31-1.415-0.901-1.998L32.887,26.499z"/>
</svg>
