<?xml version="1.0" encoding="utf-8"?>
<!-- Generator: Adobe Illustrator 21.0.2, SVG Export Plug-In . SVG Version: 6.00 Build 0)  -->
<svg version="1.1" id="Слой_1" xmlns="http://www.w3.org/2000/svg" xmlns:xlink="http://www.w3.org/1999/xlink" x="0px" y="0px"
	 viewBox="0 0 48 48" enable-background="new 0 0 48 48" xml:space="preserve">
<circle fill="#1D9F38" cx="24" cy="24" r="24"/>
<g>
	<g>
		<path fill="#FFFFFF" d="M24,12c-6.627,0-12,5.373-12,12C12,30.627,17.373,36,24,36C30.627,36,36,30.627,36,24
			C36,17.372,30.627,12,24,12z M25.299,24.456c0,0.018-0.001,0.034-0.002,0.048c-0.002,0.048-0.008,0.089-0.012,0.121l-0.002,0.015
			c-0.003,0.024-0.007,0.059-0.016,0.101c-0.01,0.044-0.022,0.08-0.03,0.104l-0.007,0.02c-0.008,0.027-0.019,0.062-0.035,0.1
			c-0.004,0.01-0.008,0.021-0.012,0.031l-0.007,0.015c-0.028,0.059-0.06,0.116-0.097,0.171l-0.018,0.025
			c-0.036,0.05-0.076,0.099-0.124,0.149l-0.007,0.007c-0.013,0.013-0.026,0.025-0.039,0.037c-0.041,0.039-0.085,0.075-0.131,0.108
			c-0.017,0.013-0.032,0.023-0.047,0.033c-0.064,0.042-0.129,0.077-0.196,0.106c-0.015,0.007-0.031,0.013-0.048,0.019
			c-0.058,0.022-0.115,0.04-0.172,0.053c-0.021,0.005-0.043,0.01-0.064,0.013c-0.083,0.015-0.159,0.023-0.232,0.023
			c-0.028,0-0.051-0.002-0.07-0.005c-0.075-0.004-0.138-0.011-0.198-0.024l-0.007-0.002c-0.031-0.007-0.057-0.016-0.071-0.021
			c-0.048-0.013-0.103-0.03-0.161-0.054c-0.011-0.004-0.024-0.009-0.038-0.015l-0.008-0.003l-4.601-2.171
			c-0.314-0.148-0.551-0.409-0.668-0.736c-0.117-0.326-0.1-0.679,0.048-0.993c0.306-0.648,1.081-0.926,1.729-0.621l2.749,1.296
			v-6.424c0-0.716,0.583-1.299,1.299-1.299c0.716,0,1.299,0.583,1.299,1.299V24.456z"/>
	</g>
</g>
</svg>
