<?xml version="1.0" encoding="utf-8"?>
<!-- Generator: Adobe Illustrator 21.0.2, SVG Export Plug-In . SVG Version: 6.00 Build 0)  -->
<svg version="1.1" id="Слой_1" xmlns="http://www.w3.org/2000/svg" xmlns:xlink="http://www.w3.org/1999/xlink" x="0px" y="0px"
	 viewBox="0 0 48 48" enable-background="new 0 0 48 48" xml:space="preserve">
<circle fill="#1D9F38" cx="24" cy="24" r="24"/>
<path fill="#FFFFFF" d="M33.826,14H14.179C12.425,14,11,15.441,11,17.214v13.573C11,32.559,12.425,34,14.179,34H33.82
	c1.754,0,3.18-1.441,3.18-3.214V17.219C37.005,15.446,35.58,14,33.826,14z M34.753,31.67c-0.159,0.167-0.366,0.25-0.578,0.25
	c-0.195,0-0.395-0.071-0.549-0.22l-7.091-6.809l-1.988,1.801c-0.147,0.137-0.342,0.209-0.531,0.209
	c-0.189,0-0.378-0.065-0.531-0.203l-1.935-1.747l-7.132,6.744c-0.153,0.143-0.348,0.215-0.543,0.215
	c-0.212,0-0.425-0.089-0.584-0.256c-0.301-0.328-0.283-0.835,0.035-1.139l7.026-6.648l-7.055-6.374
	c-0.33-0.298-0.36-0.805-0.065-1.139c0.295-0.334,0.796-0.364,1.127-0.066l7.633,6.905c0.047,0.036,0.088,0.072,0.13,0.113
	c0,0.006,0.006,0.012,0.012,0.018l1.876,1.693l9.616-8.723c0.33-0.298,0.832-0.268,1.127,0.06c0.295,0.334,0.265,0.841-0.059,1.139
	l-6.973,6.32l7.002,6.72C35.042,30.835,35.054,31.348,34.753,31.67z"/>
</svg>
